<svg width="115" height="41" viewBox="0 0 115 41" fill="none" xmlns="http://www.w3.org/2000/svg">
<path d="M114.757 40.0159H108.31C108.176 40.0159 108.067 39.9078 108.067 39.7729C108.067 37.1637 107.066 34.6924 105.248 32.8114C103.493 30.9978 101.162 29.9234 98.6613 29.7716V39.7729C98.6613 39.9078 98.5531 40.0159 98.4182 40.0159H91.9726C91.8377 40.0159 91.7296 39.9078 91.7296 39.7729V0.243062C91.7296 0.10913 91.8377 0 91.9726 0H98.4182C98.5531 0 98.6613 0.10913 98.6613 0.243062V22.7436C101.031 22.4579 103.219 21.3339 104.846 19.559C106.545 17.7058 107.481 15.303 107.481 12.794C107.481 12.6601 107.59 12.5499 107.724 12.5499H114.171C114.305 12.5499 114.414 12.6601 114.414 12.794C114.414 17.9995 112.082 22.8151 108.005 26.0602C112.392 29.2537 115 34.3561 115 39.7729C115 39.9078 114.891 40.0159 114.757 40.0159ZM89.1948 39.7729C89.1948 39.9078 89.0866 40.0159 88.9517 40.0159H82.5051C82.3712 40.0159 82.262 39.9078 82.262 39.7729V27.6098C82.262 24.1564 79.4524 21.3468 75.998 21.3468C72.5445 21.3468 69.7349 24.1564 69.7349 27.6098V39.7729C69.7349 39.9078 69.6258 40.0159 69.4919 40.0159H63.0443C62.9104 40.0159 62.8012 39.9078 62.8012 39.7729V27.6098C62.8012 20.3329 68.722 14.4131 75.998 14.4131C83.275 14.4131 89.1948 20.3329 89.1948 27.6098V39.7729ZM56.8011 13.2702C53.9786 13.2702 51.6829 10.9745 51.6829 8.152C51.6829 5.3305 53.9786 3.0348 56.8011 3.0348C59.6236 3.0348 61.9183 5.3305 61.9183 8.152C61.9183 10.9745 59.6236 13.2702 56.8011 13.2702ZM60.2674 39.7729C60.2674 39.9078 60.1583 40.0159 60.0244 40.0159H53.5778C53.4438 40.0159 53.3347 39.9078 53.3347 39.7729V15.4468C53.3347 15.3129 53.4438 15.2038 53.5778 15.2038H60.0244C60.1583 15.2038 60.2674 15.3129 60.2674 15.4468V39.7729ZM51.1918 18.6225L46.6331 23.1802C46.5419 23.2714 46.3812 23.2714 46.2899 23.1802C45.1063 21.9976 43.5339 21.3468 41.8602 21.3468C38.4067 21.3468 35.5971 24.1564 35.5971 27.6098V39.7729C35.5971 39.9078 35.488 40.0159 35.3541 40.0159H28.9075C28.7726 40.0159 28.6634 39.9078 28.6634 39.7729V27.6098C28.6634 20.3329 34.5842 14.4131 41.8602 14.4131C45.3851 14.4131 48.6987 15.7851 51.1918 18.2783C51.287 18.3735 51.287 18.5273 51.1918 18.6225ZM26.3935 27.6098C26.3935 34.8868 20.4737 40.8066 13.1968 40.8066C5.91979 40.8066 0 34.8868 0 27.6098C0 20.3329 5.91979 14.4131 13.1968 14.4131C14.9438 14.4131 16.6443 14.7504 18.2485 15.4151C18.3725 15.4677 18.431 15.6085 18.3794 15.7335L15.9111 21.6881C15.8595 21.8121 15.7177 21.8716 15.5937 21.82C14.8347 21.5055 14.0281 21.3468 13.1968 21.3468C9.74231 21.3468 6.93272 24.1564 6.93272 27.6098C6.93272 31.0643 9.74231 33.8739 13.1968 33.8739C16.6512 33.8739 19.4608 31.0643 19.4608 27.6098V0.243062C19.4608 0.10913 19.569 0 19.7039 0H26.1505C26.2844 0 26.3935 0.10913 26.3935 0.243062V27.6098Z" fill="#22403B"/>
</svg>
