<svg width="138" height="49" viewBox="0 0 138 49" fill="none" xmlns="http://www.w3.org/2000/svg">
<path d="M136.846 47.8868H129.192C129.033 47.8868 128.904 47.7584 128.904 47.5982C128.904 44.5003 127.715 41.5662 125.556 39.3329C123.472 37.1796 120.706 35.904 117.736 35.7238V47.5982C117.736 47.7584 117.608 47.8868 117.447 47.8868H109.795C109.634 47.8868 109.506 47.7584 109.506 47.5982V0.664563C109.506 0.505546 109.634 0.375977 109.795 0.375977H117.447C117.608 0.375977 117.736 0.505546 117.736 0.664563V27.3795C120.55 27.0402 123.147 25.7057 125.079 23.5984C127.097 21.3981 128.208 18.5452 128.208 15.5662C128.208 15.4072 128.337 15.2765 128.496 15.2765H136.15C136.309 15.2765 136.439 15.4072 136.439 15.5662C136.439 21.7467 133.671 27.4643 128.83 31.3172C134.038 35.1089 137.135 41.1669 137.135 47.5982C137.135 47.7584 137.005 47.8868 136.846 47.8868ZM106.496 47.5982C106.496 47.7584 106.368 47.8868 106.208 47.8868H98.5539C98.3948 47.8868 98.2653 47.7584 98.2653 47.5982V33.1571C98.2653 29.0568 94.9294 25.721 90.828 25.721C86.7277 25.721 83.3919 29.0568 83.3919 33.1571V47.5982C83.3919 47.7584 83.2623 47.8868 83.1033 47.8868H75.4481C75.289 47.8868 75.1595 47.7584 75.1595 47.5982V33.1571C75.1595 24.5172 82.1892 17.4886 90.828 17.4886C99.4679 17.4886 106.496 24.5172 106.496 33.1571V47.5982ZM68.0355 16.1316C64.6844 16.1316 61.9587 13.406 61.9587 10.0548C61.9587 6.70486 64.6844 3.97919 68.0355 3.97919C71.3866 3.97919 74.1111 6.70486 74.1111 10.0548C74.1111 13.406 71.3866 16.1316 68.0355 16.1316ZM72.1511 47.5982C72.1511 47.7584 72.0215 47.8868 71.8625 47.8868H64.2085C64.0495 47.8868 63.9199 47.7584 63.9199 47.5982V18.716C63.9199 18.557 64.0495 18.4274 64.2085 18.4274H71.8625C72.0215 18.4274 72.1511 18.557 72.1511 18.716V47.5982ZM61.3756 22.4864L55.9632 27.8977C55.8548 28.0061 55.664 28.0061 55.5556 27.8977C54.1504 26.4937 52.2834 25.721 50.2963 25.721C46.196 25.721 42.8601 29.0568 42.8601 33.1571V47.5982C42.8601 47.7584 42.7306 47.8868 42.5715 47.8868H34.9175C34.7573 47.8868 34.6277 47.7584 34.6277 47.5982V33.1571C34.6277 24.5172 41.6575 17.4886 50.2963 17.4886C54.4813 17.4886 58.4156 19.1176 61.3756 22.0777C61.4887 22.1908 61.4887 22.3734 61.3756 22.4864ZM31.9327 33.1571C31.9327 41.797 24.9041 48.8256 16.2642 48.8256C7.62426 48.8256 0.595703 41.797 0.595703 33.1571C0.595703 24.5172 7.62426 17.4886 16.2642 17.4886C18.3385 17.4886 20.3574 17.8891 22.2621 18.6783C22.4093 18.7407 22.4788 18.908 22.4176 19.0564L19.4869 26.1262C19.4257 26.2734 19.2573 26.3441 19.11 26.2828C18.2089 25.9094 17.2513 25.721 16.2642 25.721C12.1627 25.721 8.82691 29.0568 8.82691 33.1571C8.82691 37.2586 12.1627 40.5944 16.2642 40.5944C20.3657 40.5944 23.7015 37.2586 23.7015 33.1571V0.664563C23.7015 0.505546 23.8299 0.375977 23.9901 0.375977H31.6441C31.8031 0.375977 31.9327 0.505546 31.9327 0.664563V33.1571Z" fill="#22403B"/>
</svg>
