<svg width="220" height="228" viewBox="0 0 220 228" fill="none" xmlns="http://www.w3.org/2000/svg">
<path d="M214.424 76.7883C215.481 77.458 216.278 78.49 216.667 79.7358C217.495 82.2094 216.116 84.9747 213.494 85.7372C210.876 86.5943 208.146 85.1517 207.374 82.5453C206.989 81.3154 207.094 80.0117 207.556 78.9144C207.59 78.8007 207.639 78.7459 207.709 78.7217C207.772 78.7017 207.841 78.7122 207.934 78.7375L208.554 78.9534C208.663 78.9881 208.736 79.0513 208.757 79.1155C208.771 79.165 208.762 79.2535 208.722 79.3662C208.387 80.2718 208.308 81.2554 208.604 82.1905C209.175 84.0259 211.064 85.0295 213.051 84.4093C214.96 83.8438 216.043 81.8903 215.433 80.0643C215.132 79.1008 214.557 78.3384 213.706 77.7729C213.597 77.7034 213.538 77.6402 213.518 77.5907C213.499 77.5265 213.544 77.4275 213.588 77.359L213.986 76.823C214.026 76.7683 214.084 76.7241 214.148 76.7051C214.212 76.6851 214.306 76.7104 214.424 76.7883Z" fill="#22403B"/>
<path d="M205.536 73.3267L206.067 74.5767C206.111 74.6841 206.166 74.7083 206.264 74.6651L209.059 73.4836C209.173 73.4394 209.197 73.3856 209.147 73.2719L208.586 71.9482C207.982 70.5129 207.179 69.9906 206.127 70.4392C205.049 70.891 204.926 71.8756 205.536 73.3267ZM204.336 73.7595C203.351 71.4322 203.8 69.9021 205.531 69.1692C206.771 68.6479 207.809 68.9386 208.65 69.8526L210.977 66.3449C211.062 66.2375 211.121 66.168 211.169 66.149C211.258 66.109 211.342 66.1785 211.42 66.3649L211.736 67.1031C211.854 67.3885 211.828 67.5307 211.637 67.8013L209.619 70.7677C209.521 70.911 209.516 71.0047 209.585 71.1616L210.274 72.7949C210.318 72.9086 210.372 72.9286 210.486 72.8833L213.344 71.6744C213.555 71.5849 213.649 71.6344 213.732 71.8313L214.023 72.5242C214.106 72.7264 214.077 72.8244 213.866 72.9128L205.748 76.3426C205.536 76.4311 205.443 76.3816 205.359 76.1857L204.336 73.7595Z" fill="#22403B"/>
<path d="M203.494 60.2551L201.531 62.9267L204.832 62.6909C204.891 62.6867 204.93 62.6814 204.97 62.6614C205.005 62.6424 205.009 62.5929 204.961 62.5087L203.72 60.2499C203.676 60.172 203.627 60.1372 203.582 60.1614C203.558 60.1772 203.529 60.2057 203.494 60.2551ZM199.756 63.2574L205.256 55.6301C205.329 55.5417 205.388 55.4785 205.423 55.4637C205.532 55.4048 205.624 55.4585 205.713 55.6259L206.068 56.2704C206.206 56.5157 206.191 56.6347 205.989 56.9096L204.512 58.903C204.409 59.0199 204.414 59.0599 204.488 59.1873L206.264 62.4255C206.333 62.5529 206.363 62.5824 206.525 62.5729L208.995 62.3813C209.334 62.3613 209.437 62.4108 209.575 62.6561L209.905 63.2574C209.993 63.4238 209.993 63.5312 209.885 63.586C209.851 63.606 209.767 63.6207 209.654 63.6407L200.277 64.2115C199.686 64.2452 199.509 64.2062 199.426 64.0483C199.342 63.8966 199.406 63.7387 199.756 63.2574Z" fill="#22403B"/>
<path d="M192.95 53.4036C192.832 53.2267 192.842 53.1225 193.029 52.995L193.594 52.6117C193.782 52.4833 193.88 52.5127 194.003 52.6897L196.197 55.9078C196.261 56.012 196.32 56.0205 196.409 55.9626L198.598 54.4662C198.687 54.4072 198.697 54.3524 198.628 54.2555L196.699 51.4207C196.57 51.2301 196.596 51.1206 196.783 50.9932L197.338 50.6151C197.515 50.4909 197.623 50.5161 197.752 50.7036L199.68 53.5363C199.75 53.6353 199.803 53.6448 199.892 53.5858L202.74 51.6524C202.928 51.525 203.026 51.5534 203.149 51.7314L203.572 52.3506C203.69 52.5285 203.68 52.6317 203.493 52.7592L196.231 57.699C196.04 57.8265 195.942 57.797 195.824 57.6201L192.95 53.4036Z" fill="#22403B"/>
<path d="M192.333 50.4296C192.471 50.597 192.466 50.7002 192.293 50.8435L191.763 51.2763C191.586 51.4184 191.482 51.3995 191.349 51.232L187.119 46.0415C186.985 45.8793 186.985 45.7709 187.163 45.6277L187.694 45.2001C187.87 45.0527 187.969 45.0717 188.107 45.2391L189.696 47.1925C189.77 47.2862 189.829 47.2915 189.912 47.222L195.846 42.3853C196.023 42.2431 196.126 42.2632 196.264 42.4295L196.736 43.0108C196.87 43.173 196.87 43.2815 196.692 43.4247L190.759 48.2593C190.675 48.3288 190.671 48.3835 190.744 48.4772L192.333 50.4296Z" fill="#22403B"/>
<path d="M180.598 37.6848L181.572 38.5894C181.661 38.6726 181.729 38.6589 181.804 38.5799L183.505 36.7497C183.579 36.6707 183.584 36.6076 183.495 36.5223L182.384 35.4903C181.39 34.5646 180.568 34.4425 179.919 35.1407C179.26 35.8494 179.505 36.6707 180.598 37.6848ZM183.176 34.5604L184.327 35.6282C184.415 35.7114 184.474 35.7061 184.553 35.6177L186.304 33.739C186.374 33.6601 186.383 33.5958 186.295 33.5126L185.223 32.5133C184.012 31.3918 183.205 31.2106 182.467 32.0068C181.778 32.745 182.084 33.5411 183.176 34.5604ZM179.688 38.5262C178.064 37.0151 177.621 35.5587 178.801 34.2887C179.545 33.4926 180.337 33.3694 181.217 33.7432C180.642 32.8629 180.666 31.8941 181.434 31.0674C182.743 29.6606 184.292 29.9649 186.063 31.6077L188.022 33.4284C188.179 33.5769 188.194 33.679 188.037 33.8464L182.034 40.3017C181.882 40.4691 181.773 40.4649 181.616 40.3164L179.688 38.5262Z" fill="#22403B"/>
<path d="M170.281 30.6754C170.113 30.548 170.089 30.4437 170.231 30.2616L170.65 29.7213C170.787 29.5444 170.896 29.5392 171.063 29.6718L174.118 32.0391C174.217 32.1118 174.271 32.1076 174.339 32.0233L175.84 30.0804C175.919 29.9878 175.909 29.9277 175.816 29.854L173.12 27.7627C172.947 27.6352 172.928 27.532 173.066 27.3499L173.479 26.8191C173.611 26.6517 173.725 26.6369 173.892 26.7696L176.588 28.8547C176.681 28.9294 176.74 28.9242 176.804 28.841L178.349 26.8433C178.419 26.7591 178.408 26.7054 178.314 26.6264L175.25 24.2497C175.077 24.1222 175.058 24.019 175.195 23.8369L175.613 23.2956C175.757 23.1134 175.86 23.1134 176.031 23.2419L180.052 26.361C180.219 26.4937 180.244 26.5969 180.1 26.7749L174.709 33.7356C174.566 33.9125 174.462 33.9178 174.291 33.7851L170.281 30.6754Z" fill="#22403B"/>
<path d="M162.948 25.7933C162.766 25.6806 162.736 25.5774 162.859 25.3847L163.233 24.8087C163.356 24.6181 163.459 24.6034 163.642 24.7202L166.898 26.8264C166.997 26.8906 167.056 26.8811 167.11 26.7874L168.448 24.7202C168.512 24.6181 168.502 24.5633 168.398 24.4991L165.531 22.6447C165.349 22.5267 165.319 22.4235 165.442 22.2319L165.806 21.6706C165.925 21.4884 166.037 21.4642 166.214 21.5821L169.088 23.4376C169.191 23.5008 169.245 23.4903 169.304 23.3976L170.677 21.2725C170.736 21.1841 170.721 21.1293 170.622 21.0609L167.356 18.9506C167.174 18.8379 167.144 18.7336 167.267 18.5409L167.641 17.9659C167.764 17.7743 167.868 17.7595 168.05 17.8775L172.329 20.647C172.512 20.7608 172.541 20.864 172.419 21.0556L167.626 28.4702C167.503 28.6618 167.4 28.6713 167.218 28.5586L162.948 25.7933Z" fill="#22403B"/>
<path d="M158.045 21.5408L159.241 22.1716C159.349 22.2243 159.404 22.2106 159.452 22.1116L160.859 19.441C160.914 19.3315 160.899 19.2789 160.791 19.2241L159.526 18.5544C158.154 17.832 157.204 17.9394 156.673 18.9429C156.132 19.977 156.658 20.8132 158.045 21.5408ZM157.396 22.6328C155.167 21.4629 154.547 20.0013 155.418 18.3437C156.043 17.1633 157.027 16.7252 158.246 16.9021L157.824 12.7352C157.824 12.5972 157.824 12.5088 157.848 12.4593C157.893 12.3761 158.001 12.3761 158.178 12.4645L158.887 12.8373C159.163 12.9858 159.231 13.108 159.251 13.4386L159.575 16.9958C159.59 17.1675 159.64 17.2412 159.797 17.3202L161.357 18.1458C161.465 18.2005 161.518 18.1816 161.573 18.0773L163.015 15.3415C163.118 15.1404 163.221 15.1203 163.413 15.2193L164.072 15.5679C164.264 15.6669 164.304 15.7659 164.195 15.967L160.111 23.7301C160.008 23.9323 159.905 23.9523 159.713 23.8533L157.396 22.6328Z" fill="#22403B"/>
<path d="M144.731 15.7538L145.976 16.1961C146.094 16.2361 146.148 16.1961 146.182 16.0982L147.014 13.752C147.049 13.653 147.029 13.5887 146.915 13.5498L145.488 13.0433C144.214 12.5947 143.417 12.8063 143.103 13.7025C142.778 14.6123 143.328 15.2568 144.731 15.7538ZM145.843 11.8765L147.319 12.3977C147.432 12.442 147.486 12.4177 147.526 12.3051L148.377 9.89462C148.411 9.79563 148.391 9.73139 148.279 9.69243L146.906 9.20487C145.355 8.65412 144.549 8.81208 144.184 9.83038C143.851 10.7739 144.446 11.3857 145.843 11.8765ZM144.234 16.8795C142.153 16.1477 141.169 14.9904 141.745 13.3623C142.109 12.3451 142.783 11.9154 143.733 11.9123C142.862 11.3363 142.497 10.4401 142.871 9.38178C143.505 7.57684 145.046 7.24197 147.314 8.0444L149.823 8.93002C150.025 9.00373 150.079 9.09219 150.005 9.30912L147.078 17.5788C147.003 17.7915 146.906 17.8304 146.704 17.7557L144.234 16.8795Z" fill="#22403B"/>
<path d="M133.892 12.6665C135.761 13.114 137.606 11.9967 138.098 9.96959C138.61 8.02249 137.448 6.12278 135.594 5.71946C133.764 5.23189 131.806 6.4229 131.373 8.37632C130.886 10.4035 132.023 12.2137 133.892 12.6665ZM130.009 8.06145C130.611 5.40038 133.242 3.78078 135.91 4.48001C138.536 5.05498 140.13 7.66761 139.462 10.2855C138.856 12.9476 136.209 14.5904 133.582 13.9017C130.93 13.3057 129.335 10.6941 130.009 8.06145Z" fill="#22403B"/>
<path d="M127.1 11.0785C127.311 11.108 127.38 11.187 127.35 11.4081L127.262 12.0873C127.232 12.3137 127.144 12.3727 126.927 12.3432L120.28 11.4576C120.07 11.4281 119.995 11.3544 120.025 11.128L120.119 10.4488C120.148 10.2234 120.236 10.1686 120.449 10.1929L122.948 10.5277C123.071 10.5425 123.115 10.5077 123.129 10.4045L124.138 2.7941C124.167 2.56769 124.255 2.51293 124.472 2.54347L125.215 2.64035C125.428 2.67089 125.5 2.7446 125.466 2.97101L124.458 10.5762C124.443 10.6846 124.478 10.7299 124.596 10.7499L127.1 11.0785Z" fill="#22403B"/>
<path d="M117.744 9.9061C117.956 9.91663 118.035 9.98929 118.026 10.2157L117.991 10.8949C117.981 11.1255 117.897 11.1856 117.686 11.175L111 10.8707C110.783 10.8602 110.704 10.7917 110.714 10.56L110.748 9.88188C110.759 9.65547 110.842 9.59123 111.053 9.60071L113.573 9.71339C113.69 9.71865 113.734 9.68495 113.74 9.57649L114.089 1.92604C114.099 1.69437 114.183 1.6354 114.399 1.64487L115.147 1.67962C115.358 1.6891 115.437 1.7586 115.428 1.98606L115.073 9.63546C115.068 9.74393 115.108 9.78815 115.231 9.79342L117.744 9.9061Z" fill="#22403B"/>
<path d="M107.051 10.9522C106.839 10.9628 106.756 10.8985 106.746 10.6721L106.436 3.02167C106.436 2.9132 106.392 2.87424 106.274 2.87951L102.328 3.03641C102.112 3.04589 102.028 2.98271 102.018 2.7563L101.993 2.07181C101.984 1.84646 102.063 1.77696 102.273 1.76643L107.425 1.56108C107.637 1.55055 107.72 1.61479 107.73 1.84119L108.084 10.6184C108.095 10.8438 108.016 10.9133 107.804 10.9238L107.051 10.9522Z" fill="#22403B"/>
<path d="M94.182 12.04C93.965 12.0695 93.8766 12.0116 93.8523 11.7852L93.7692 11.1049C93.7439 10.8785 93.8134 10.8058 94.025 10.7816L97.8571 10.313C97.9751 10.2993 98.0098 10.2551 97.9993 10.1466L97.7044 7.71617C97.6907 7.59296 97.6455 7.55821 97.5222 7.57295L94.1472 7.98575C93.9313 8.01102 93.8481 7.95205 93.8176 7.72565L93.7397 7.06117C93.7102 6.8495 93.7839 6.76105 93.9956 6.73156L97.3706 6.32298C97.4938 6.30929 97.5275 6.26506 97.5128 6.15659L97.2126 3.65664C97.1979 3.55344 97.1537 3.51448 97.0357 3.52922L93.1889 3.99572C92.9762 4.02626 92.8877 3.96729 92.8635 3.74088L92.7793 3.06166C92.7508 2.83525 92.8246 2.76154 93.0362 2.73205L98.0783 2.12234C98.2899 2.09811 98.3784 2.15077 98.4037 2.37717L99.4662 11.1049C99.4915 11.3324 99.422 11.405 99.2061 11.4303L94.182 12.04Z" fill="#22403B"/>
<path d="M84.4793 6.50994C83.5252 6.10557 82.6543 5.99816 81.8624 6.20455C80.6661 6.51415 80.0417 7.26288 80.2628 8.10427C80.4692 8.90986 81.04 9.08256 82.708 9.07729C84.6414 9.05834 85.7977 9.43638 86.1915 10.957C86.6191 12.6103 85.5565 13.9529 83.8148 14.4058C82.7228 14.6922 81.6497 14.6122 80.5882 14.1499C80.4798 14.1109 80.4208 14.0561 80.406 13.9919C80.3913 13.9393 80.4155 13.8645 80.445 13.7613L80.6767 13.1021C80.7104 12.9831 80.7651 12.9252 80.8336 12.9104C80.8978 12.8915 80.9663 12.8999 81.0747 12.9441C81.8961 13.2695 82.6933 13.3969 83.5105 13.181C84.4993 12.9252 85.0648 12.2217 84.8489 11.3898C84.6267 10.5484 83.9622 10.3862 82.4574 10.4062C80.3471 10.4157 79.3088 9.99345 78.9349 8.54655C78.5063 6.91326 79.6184 5.48532 81.5665 4.97985C82.7523 4.6692 83.8885 4.83137 84.9373 5.29471C85.0553 5.3579 85.1237 5.41266 85.1385 5.47689C85.1585 5.54008 85.148 5.61379 85.1037 5.72225L84.8584 6.36673C84.8183 6.47519 84.7646 6.54364 84.7004 6.56365C84.6614 6.57418 84.5877 6.5489 84.4793 6.50994Z" fill="#22403B"/>
<path d="M76.5949 16.3616C76.3938 16.4353 76.2948 16.4006 76.2158 16.1889L75.0154 12.9076C74.9817 12.8097 74.9227 12.7707 74.809 12.8149L70.6368 14.3397C70.5241 14.384 70.5041 14.4482 70.5388 14.5461L71.7393 17.8233C71.8172 18.0391 71.7635 18.1276 71.5624 18.2013L70.8579 18.4625C70.6568 18.5351 70.5588 18.5014 70.4798 18.2856L67.4534 10.0148C67.3754 9.80318 67.4291 9.71052 67.6313 9.63575L68.3348 9.37986C68.5359 9.30614 68.6349 9.34089 68.7139 9.55256L70.0018 13.0698C70.0365 13.174 70.0913 13.1982 70.2039 13.154L74.3762 11.6292C74.4888 11.5892 74.5141 11.5355 74.4741 11.4365L73.1904 7.91821C73.1114 7.70234 73.1662 7.61388 73.3673 7.54017L74.0708 7.27901C74.273 7.20635 74.3709 7.24005 74.4499 7.45698L77.4753 15.7266C77.5543 15.9383 77.4995 16.032 77.2984 16.1057L76.5949 16.3616Z" fill="#22403B"/>
<path d="M63.0529 20.9103C64.7694 20.0394 65.4486 17.9922 64.5093 16.1336C63.6331 14.3181 61.5175 13.6242 59.8495 14.5203C58.1383 15.3364 57.4148 17.5099 58.3594 19.2822C59.2988 21.1419 61.3406 21.7759 63.0529 20.9103ZM57.1147 19.9256C55.8447 17.5068 56.7999 14.5688 59.284 13.3735C61.6555 12.1088 64.563 13.0639 65.7487 15.4933C67.0187 17.909 66.0636 20.8766 63.6184 22.057C61.2122 23.3165 58.3057 22.3666 57.1147 19.9256Z" fill="#22403B"/>
<path d="M53.5043 26.1728L54.5921 25.4641C54.69 25.4009 54.7048 25.3408 54.6458 25.2524L52.7766 22.3786C52.7166 22.2901 52.6534 22.2659 52.5544 22.3344L51.4624 23.0431C50.1493 23.895 49.7112 24.9186 50.4146 25.9948C51.1128 27.0721 52.1416 27.0584 53.5043 26.1728ZM54.1288 27.2848C51.9837 28.6769 50.3662 28.4705 49.2636 26.7772C48.1516 25.0702 48.6824 23.3337 50.8032 21.9511L51.8605 21.2676C51.9595 21.1981 51.9742 21.1444 51.9152 21.056L50.4683 18.8319C50.3451 18.6403 50.3757 18.5413 50.5526 18.4244L51.1823 18.0158C51.3645 17.9021 51.4677 17.9115 51.5909 18.1042L56.3823 25.4641C56.5055 25.6557 56.476 25.7547 56.2938 25.8726L54.1288 27.2848Z" fill="#22403B"/>
<path d="M37.9744 33.0197L40.9956 34.3823L40.0752 31.2031C40.0605 31.1452 40.0457 31.1063 40.0162 31.0757C39.992 31.0462 39.9425 31.0515 39.873 31.1147L37.9249 32.7975C37.8512 32.8575 37.8312 32.9101 37.8659 32.9554C37.8807 32.9754 37.9207 32.9954 37.9744 33.0197ZM41.6885 36.0451L33.0892 32.2615C32.986 32.2078 32.9113 32.1635 32.8871 32.134C32.8081 32.0403 32.8428 31.9424 32.986 31.8181L33.5463 31.3369C33.7579 31.1505 33.8717 31.14 34.1855 31.2779L36.439 32.3057C36.577 32.3847 36.6159 32.3699 36.7297 32.272L39.5192 29.8605C39.6277 29.7668 39.6519 29.7278 39.6024 29.5751L38.9042 27.2047C38.8158 26.874 38.84 26.7613 39.0569 26.575L39.574 26.1316C39.7161 26.0084 39.8193 25.9831 39.8983 26.0769C39.9278 26.1074 39.9573 26.1864 39.9962 26.2938L42.5109 35.3364C42.6678 35.9124 42.6636 36.0893 42.5352 36.202C42.4025 36.3157 42.2308 36.2862 41.6885 36.0451Z" fill="#22403B"/>
<path d="M36.4114 41.3112L27.9837 40.9279L32.6772 45.2907C32.8447 45.4444 32.8394 45.5518 32.692 45.7098L32.1802 46.2606C32.0327 46.4185 31.9295 46.4269 31.7621 46.2753L25.3069 40.2739C25.091 40.0707 25.0468 39.9043 25.1647 39.7758C25.2669 39.6674 25.4248 39.6337 25.8587 39.6431L34.281 40.0317L29.5875 35.6689C29.4201 35.5099 29.4296 35.4078 29.5728 35.2498L30.0846 34.699C30.232 34.5411 30.3352 34.5274 30.5027 34.6843L36.9579 40.6857C37.1832 40.8931 37.2275 41.0458 37.0906 41.1932C36.9916 41.3007 36.8294 41.3354 36.4114 41.3112Z" fill="#22403B"/>
<path d="M26.8374 50.8741L27.7136 49.6926C27.7862 49.5946 27.7768 49.5357 27.6936 49.4767L22.4388 45.5699C22.3556 45.5109 22.2967 45.5162 22.2272 45.6141L21.3816 46.7556C19.9294 48.7038 20.1558 50.6235 21.8786 51.9019C23.5066 53.1118 25.42 52.778 26.8374 50.8741ZM27.7968 51.7197C25.9223 54.2386 23.3097 54.702 21.0909 53.0529C18.7542 51.3217 18.4435 48.5669 20.3727 45.9742L21.9228 43.8871C22.0503 43.7154 22.1535 43.6912 22.3356 43.8239L29.3953 49.0681C29.5775 49.2061 29.587 49.3093 29.4596 49.482L27.7968 51.7197Z" fill="#22403B"/>
<path d="M14.6339 62.4914L15.3815 61.114C15.4363 61.0108 15.4215 60.9571 15.3131 60.8971L13.0701 59.6777C12.9764 59.6282 12.9068 59.6387 12.8531 59.7419L12.155 61.0256C11.3725 62.4714 11.3968 63.2939 12.3519 63.8109C13.2312 64.288 13.9252 63.7951 14.6339 62.4914ZM18.289 64.1995L18.9187 63.039C18.9777 62.9295 18.9493 62.8705 18.8556 62.8168L16.6663 61.6311C16.5725 61.5816 16.5083 61.5921 16.4493 61.6943L15.7311 63.0232C15.0867 64.2142 15.1699 65.0356 16.007 65.4884C16.8526 65.9507 17.5814 65.5074 18.289 64.1995ZM19.3273 64.8682C18.2753 66.8111 16.9759 67.5988 15.4605 66.7763C14.5054 66.2603 14.1916 65.5221 14.3337 64.5828C13.625 65.3557 12.6857 65.5769 11.6969 65.0409C10.0141 64.1258 9.92565 62.5567 11.0724 60.4401L12.3414 58.0981C12.4446 57.9106 12.5435 57.8717 12.7394 57.9801L20.4594 62.1671C20.6563 62.2756 20.6805 62.3788 20.5773 62.5652L19.3273 64.8682Z" fill="#22403B"/>
<path d="M9.69017 73.1682L13.001 73.0302L10.758 70.604C10.719 70.5597 10.6885 70.5313 10.6495 70.5155C10.6148 70.5018 10.5705 70.526 10.5368 70.6145L9.54695 72.9912C9.51325 73.0744 9.51747 73.1334 9.56696 73.1576C9.59223 73.1682 9.6312 73.1682 9.69017 73.1682ZM14.3689 74.2107L4.98195 74.6793C4.86822 74.674 4.78503 74.6688 4.74607 74.6488C4.6376 74.6045 4.62286 74.4971 4.69658 74.3244L4.97669 73.6452C5.08515 73.384 5.18309 73.3208 5.52323 73.3061L8.00212 73.2176C8.16008 73.2219 8.1843 73.1924 8.24327 73.0555L9.66068 69.6499C9.71439 69.5172 9.71965 69.473 9.60592 69.355L7.91893 67.549C7.69252 67.2942 7.6683 67.1805 7.77676 66.9246L8.03687 66.2906C8.11058 66.1179 8.19483 66.0537 8.3075 66.0979C8.34226 66.1127 8.40649 66.1717 8.48968 66.2464L14.787 73.2071C15.1808 73.6505 15.2598 73.8126 15.1955 73.9748C15.1271 74.137 14.9586 74.1812 14.3689 74.2107Z" fill="#22403B"/>
<path d="M10.3958 82.9447L10.7896 81.6463C10.8244 81.5273 10.7991 81.4778 10.6959 81.4483L7.7937 80.5627C7.67997 80.529 7.63153 80.5532 7.59678 80.6722L7.17345 82.0444C6.72063 83.5302 7.00075 84.4453 8.09277 84.7791C9.21006 85.1182 9.93772 84.4453 10.3958 82.9447ZM11.5963 83.3775C10.8581 85.7932 9.53545 86.6789 7.73894 86.1323C6.45526 85.7385 5.84028 84.8486 5.78657 83.6134L1.75653 84.8097C1.61963 84.8392 1.53012 84.8529 1.48168 84.8392C1.38796 84.8097 1.36795 84.7065 1.42271 84.5085L1.65859 83.7419C1.75232 83.447 1.85973 83.3533 2.18512 83.2701L5.62861 82.2855C5.79605 82.2413 5.85923 82.1728 5.90873 82.0043L6.42578 80.3121C6.46053 80.1994 6.43526 80.1457 6.31731 80.1109L3.35507 79.2053C3.13392 79.1421 3.09496 79.0431 3.15814 78.8367L3.37507 78.1186C3.43931 77.9122 3.52777 77.8574 3.7447 77.9206L12.167 80.4943C12.384 80.5585 12.4282 80.6564 12.364 80.8628L11.5963 83.3775Z" fill="#22403B"/>
<path d="M8.74058 138.265C8.68582 138.059 8.7311 137.96 8.94698 137.906L9.61146 137.733C9.8326 137.674 9.91579 137.733 9.97055 137.945L10.5855 140.297C10.6392 140.504 10.595 140.597 10.3739 140.656L1.85254 142.875C1.6314 142.929 1.54294 142.87 1.48818 142.664L1.30179 141.935C1.24703 141.728 1.29126 141.629 1.51346 141.577L8.93224 139.643C9.04597 139.613 9.0744 139.563 9.04597 139.445L8.74058 138.265Z" fill="#22403B"/>
<path d="M4.73034 146.987C4.47445 147.853 4.47971 148.689 4.75983 149.491C5.24213 150.898 6.21094 151.444 7.26399 151.08C8.30652 150.721 8.5582 149.64 8.12013 148.369C7.85371 147.613 7.42616 146.894 7.00284 146.372C6.92912 146.284 6.89542 146.224 6.89016 146.21C6.84593 146.083 6.93965 145.984 7.16079 145.919L11.4362 144.655C11.7068 144.577 11.8195 144.621 11.9227 144.911L13.5413 149.604C13.6202 149.821 13.5813 149.919 13.3643 149.993L12.7199 150.219C12.5029 150.294 12.4145 150.239 12.3418 150.023L11.0424 146.268C11.0034 146.155 10.9486 146.131 10.836 146.171L8.65087 146.825C8.971 147.253 9.22689 147.759 9.42381 148.33C10.0778 150.219 9.42381 151.808 7.8 152.369C6.12248 152.95 4.33123 152.163 3.5446 149.88C3.18024 148.827 3.1655 147.755 3.48984 146.687C3.5446 146.56 3.57935 146.49 3.66781 146.461C3.73099 146.437 3.80576 146.441 3.90896 146.461L4.52815 146.604C4.65136 146.628 4.72508 146.678 4.74508 146.742C4.76509 146.805 4.76509 146.875 4.73034 146.987Z" fill="#22403B"/>
<path d="M16.7539 157.951L14.5246 163.343L20.2079 164.509C20.6113 164.618 20.7197 164.652 20.7829 164.779C20.8766 164.957 20.7924 165.08 20.5175 165.222L12.7639 169.301C12.5627 169.409 12.469 169.365 12.37 169.178L12.0204 168.514C11.9172 168.328 11.9425 168.224 12.1436 168.115L17.6585 165.217L13.5021 164.381C13.123 164.323 13.0198 164.268 12.9503 164.141C12.8818 164.012 12.9018 163.894 13.064 163.549L14.732 159.653L9.21614 162.556C9.015 162.659 8.91707 162.62 8.81808 162.429L8.46847 161.769C8.37053 161.577 8.39054 161.475 8.59167 161.37L16.3453 157.292C16.6212 157.149 16.7687 157.143 16.8624 157.321C16.9308 157.454 16.8866 157.597 16.7539 157.951Z" fill="#22403B"/>
<path d="M21.1415 175.123L22.8338 172.285L19.5819 172.835C19.523 172.84 19.4787 172.85 19.4493 172.874C19.4145 172.9 19.4145 172.949 19.4693 173.022L20.9151 175.147C20.9646 175.227 21.0183 175.255 21.0625 175.227C21.0878 175.211 21.112 175.177 21.1415 175.123ZM24.5703 171.788L19.8273 179.885C19.7641 179.978 19.7146 180.048 19.6799 180.072C19.5819 180.136 19.484 180.092 19.3755 179.934L18.9617 179.324C18.8048 179.094 18.81 178.98 18.9764 178.685L20.2612 176.564C20.3496 176.441 20.3391 176.397 20.2559 176.275L18.1845 173.234C18.1013 173.111 18.0666 173.086 17.9097 173.111L15.474 173.539C15.1391 173.588 15.0306 173.548 14.8737 173.317L14.4904 172.751C14.3819 172.594 14.3714 172.491 14.4746 172.423C14.5041 172.397 14.5883 172.378 14.701 172.348L23.9605 170.892C24.546 170.799 24.723 170.823 24.8219 170.966C24.9199 171.107 24.8714 171.276 24.5703 171.788Z" fill="#22403B"/>
<path d="M29.6757 179.857L28.8101 178.819C28.7311 178.726 28.6721 178.72 28.5932 178.789L26.2659 180.738C26.1732 180.811 26.168 180.871 26.2417 180.964L27.1663 182.066C28.1656 183.261 29.0849 183.521 29.9611 182.789C30.8572 182.041 30.6845 181.062 29.6757 179.857ZM30.6993 179.094C32.3178 181.028 32.3378 182.622 30.8962 183.828C29.8673 184.688 28.7848 184.717 27.7181 184.089L26.5165 188.118C26.4681 188.245 26.4333 188.328 26.3944 188.363C26.3207 188.422 26.2175 188.383 26.089 188.23L25.573 187.61C25.3761 187.374 25.3613 187.232 25.4645 186.916L26.5218 183.493C26.5765 183.325 26.5565 183.242 26.4439 183.104L25.3076 181.746C25.2286 181.652 25.1739 181.648 25.0802 181.726L22.6992 183.714C22.5223 183.861 22.4191 183.841 22.2811 183.679L21.7988 183.099C21.6619 182.937 21.6619 182.833 21.8389 182.686L28.5984 177.037C28.7711 176.89 28.8743 176.91 29.0112 177.071L30.6993 179.094Z" fill="#22403B"/>
<path d="M35.9954 184.994C36.1481 185.148 36.1576 185.25 35.9954 185.412L29.796 191.666C29.6339 191.828 29.5307 191.818 29.378 191.666L28.842 191.134C28.6893 190.986 28.6798 190.878 28.842 190.716L35.0455 184.467C35.2035 184.306 35.3067 184.311 35.4594 184.463L35.9954 184.994ZM33.447 188.669L38.7407 188.173C39.0851 188.133 39.1883 188.163 39.3904 188.36L40.0107 188.975C40.1328 189.097 40.1529 189.19 40.0834 189.26C40.0497 189.295 39.9802 189.323 39.8875 189.323L34.2789 189.816L33.8156 195.577C33.7966 195.69 33.7808 195.769 33.7524 195.798C33.6829 195.863 33.5797 195.838 33.4565 195.715L32.7973 195.061C32.5814 194.844 32.5614 194.751 32.5856 194.416L33.0679 189.028C33.0774 188.906 33.1174 188.812 33.1616 188.763C33.2206 188.708 33.3143 188.669 33.447 188.669Z" fill="#22403B"/>
<path d="M46.2755 194.361C46.4376 194.499 46.4577 194.598 46.3144 194.775L45.8774 195.301C45.7342 195.473 45.631 195.473 45.4636 195.34L42.4971 192.88C42.4034 192.806 42.3486 192.811 42.2802 192.891L40.7164 194.779C40.6416 194.868 40.6469 194.927 40.7406 195L43.3575 197.171C43.5207 197.309 43.5396 197.411 43.3922 197.584L42.9689 198.1C42.8309 198.263 42.7183 198.277 42.5561 198.139L39.9382 195.969C39.8455 195.896 39.7855 195.901 39.7223 195.985L38.1132 197.918C38.049 198.001 38.0543 198.056 38.148 198.134L41.1239 200.599C41.2872 200.737 41.3061 200.84 41.1639 201.012L40.7259 201.539C40.5827 201.716 40.4752 201.716 40.312 201.579L36.4062 198.346C36.2441 198.208 36.2241 198.106 36.3662 197.933L41.9653 191.173C42.1127 190.996 42.217 190.996 42.3792 191.134L46.2755 194.361Z" fill="#22403B"/>
<path d="M47.9536 197.258C47.7767 197.14 47.7472 197.035 47.8746 196.849L48.2632 196.288C48.3959 196.1 48.5002 196.092 48.6718 196.214L54.1719 200.022C54.3446 200.14 54.3741 200.244 54.2467 200.431L53.857 200.992C53.7296 201.179 53.6212 201.188 53.4495 201.066L51.3824 199.633C51.2844 199.564 51.2255 199.574 51.1665 199.663L46.8121 205.951C46.6836 206.138 46.5815 206.148 46.4035 206.024L45.7885 205.601C45.6116 205.479 45.5821 205.375 45.7159 205.188L50.0639 198.902C50.1282 198.816 50.1187 198.758 50.0197 198.689L47.9536 197.258Z" fill="#22403B"/>
<path d="M57.3074 210.32C57.7455 211.255 58.3205 211.914 59.0492 212.287C60.1454 212.853 61.1047 212.716 61.5091 211.943C61.8882 211.205 61.5776 210.693 60.3381 209.587C58.887 208.313 58.2815 207.26 58.9997 205.866C59.7821 204.352 61.4691 204.062 63.0687 204.888C64.067 205.404 64.8147 206.181 65.297 207.229C65.3517 207.333 65.3559 207.411 65.3264 207.471C65.3022 207.516 65.2327 207.56 65.1443 207.619L64.5345 207.954C64.4261 208.017 64.3482 208.021 64.2881 207.987C64.2249 207.958 64.1797 207.904 64.126 207.8C63.7374 207.013 63.2256 206.389 62.4779 205.999C61.5723 205.533 60.6825 205.675 60.2886 206.437C59.8906 207.215 60.2791 207.776 61.4101 208.77C62.9802 210.166 63.472 211.175 62.7886 212.499C62.0156 213.999 60.2349 214.319 58.4479 213.395C57.3664 212.839 56.624 211.958 56.1512 210.915C56.1122 210.786 56.0975 210.703 56.1259 210.644C56.1564 210.585 56.2101 210.536 56.3133 210.486L56.9283 210.166C57.0315 210.119 57.1147 210.098 57.1747 210.127C57.2137 210.147 57.2527 210.216 57.3074 210.32Z" fill="#22403B"/>
<path d="M67.7695 208.724C67.5725 208.645 67.523 208.552 67.6073 208.341L67.8632 207.706C67.9464 207.494 68.0454 207.459 68.2465 207.544L74.4701 210.043C74.6722 210.122 74.7217 210.215 74.6375 210.426L74.3816 211.061C74.2931 211.273 74.1952 211.302 73.9983 211.223L71.6563 210.284C71.5426 210.238 71.4889 210.259 71.4499 210.363L68.5908 217.486C68.5077 217.697 68.4087 217.728 68.2075 217.649L67.5136 217.369C67.3114 217.29 67.2629 217.196 67.3461 216.985L70.2052 209.86C70.2441 209.761 70.2241 209.709 70.1115 209.665L67.7695 208.724Z" fill="#22403B"/>
<path d="M79.5235 213.044L78.2293 212.661C78.1114 212.626 78.0619 212.65 78.0324 212.754L77.1615 215.656C77.1278 215.769 77.1562 215.819 77.27 215.854L78.6432 216.266C80.1332 216.714 81.0431 216.424 81.3727 215.331C81.7023 214.214 81.0241 213.497 79.5235 213.044ZM79.9511 211.848C82.3668 212.567 83.2576 213.885 82.7216 215.681C82.3373 216.966 81.4527 217.585 80.2175 217.644L81.4316 221.664C81.4622 221.797 81.4811 221.886 81.4622 221.934C81.4369 222.028 81.3337 222.053 81.1368 221.993L80.3691 221.761C80.0743 221.673 79.9816 221.56 79.8973 221.245L78.8938 217.811C78.8496 217.644 78.7801 217.581 78.6137 217.531L76.9204 217.024C76.8035 216.99 76.754 217.015 76.7192 217.132L75.8336 220.094C75.7652 220.315 75.6714 220.354 75.465 220.296L74.7458 220.08C74.5394 220.015 74.4857 219.932 74.5489 219.71L77.0678 211.293C77.1373 211.071 77.231 211.032 77.4374 211.092L79.9511 211.848Z" fill="#22403B"/>
<path d="M92.0159 214.741C92.2276 214.78 92.2918 214.863 92.2466 215.084L92.1139 215.759C92.0696 215.981 91.9759 216.03 91.7653 215.991L87.9817 215.238C87.8637 215.213 87.8142 215.243 87.7942 215.351L87.3172 217.756C87.293 217.875 87.3225 217.919 87.4404 217.944L90.7807 218.608C90.9924 218.652 91.0566 218.731 91.0124 218.958L90.8839 219.612C90.8397 219.823 90.7459 219.887 90.5353 219.843L87.194 219.179C87.076 219.159 87.0318 219.188 87.0129 219.291L86.52 221.766C86.4958 221.87 86.5306 221.919 86.6485 221.939L90.4469 222.697C90.6575 222.736 90.7217 222.819 90.6775 223.04L90.5448 223.714C90.5006 223.935 90.4069 223.985 90.2005 223.946L85.2164 222.952C85.0047 222.913 84.9415 222.83 84.9857 222.608L86.698 213.983C86.7422 213.762 86.8349 213.712 87.0466 213.752L92.0159 214.741Z" fill="#22403B"/>
<path d="M100.839 215.914C101.051 215.938 101.124 216.017 101.095 216.243L101.021 216.922C100.992 217.144 100.903 217.203 100.691 217.178L96.8636 216.735C96.7404 216.721 96.6962 216.755 96.6867 216.863L96.4066 219.299C96.3919 219.417 96.4266 219.461 96.5435 219.476L99.9238 219.864C100.135 219.888 100.209 219.968 100.18 220.194L100.106 220.858C100.082 221.07 99.9933 221.138 99.7817 221.113L96.4013 220.724C96.2834 220.711 96.2392 220.746 96.2244 220.853L95.9338 223.352C95.9243 223.46 95.9591 223.505 96.077 223.52L99.9238 223.963C100.135 223.987 100.204 224.061 100.18 224.287L100.101 224.966C100.077 225.193 99.9881 225.252 99.7764 225.227L94.7333 224.642C94.5216 224.618 94.4479 224.543 94.4774 224.316L95.4862 215.594C95.5105 215.368 95.5989 215.309 95.8116 215.333L100.839 215.914Z" fill="#22403B"/>
<path d="M103.671 217.405C103.459 217.4 103.381 217.337 103.385 217.105L103.4 216.426C103.405 216.195 103.488 216.131 103.7 216.136L110.391 216.288C110.603 216.293 110.682 216.363 110.677 216.593L110.662 217.273C110.657 217.503 110.573 217.567 110.362 217.562L107.848 217.503C107.725 217.499 107.686 217.538 107.681 217.646L107.508 225.297C107.504 225.523 107.419 225.592 107.202 225.587L106.456 225.567C106.243 225.562 106.165 225.494 106.171 225.267L106.342 217.617C106.347 217.508 106.307 217.469 106.189 217.464L103.671 217.405Z" fill="#22403B"/>
<path d="M120.144 220.389C120.199 221.02 119.735 221.585 119.096 221.639C118.466 221.693 117.9 221.216 117.846 220.586C117.792 219.956 118.264 219.392 118.894 219.338C119.539 219.282 120.09 219.759 120.144 220.389Z" fill="#22403B"/>
<path d="M128.439 214.541C128.65 214.497 128.739 214.547 128.788 214.773L129.507 218.187C129.531 218.294 129.58 218.339 129.698 218.314L134.047 217.399C134.165 217.371 134.195 217.311 134.175 217.208L133.452 213.788C133.408 213.567 133.471 213.483 133.683 213.439L134.416 213.282C134.628 213.238 134.721 213.287 134.771 213.512L136.586 222.137C136.63 222.359 136.566 222.442 136.355 222.487L135.622 222.638C135.41 222.683 135.316 222.635 135.267 222.413L134.5 218.742C134.475 218.64 134.426 218.609 134.308 218.634L129.958 219.55C129.841 219.574 129.811 219.623 129.831 219.727L130.604 223.391C130.648 223.619 130.584 223.702 130.377 223.746L129.639 223.899C129.428 223.943 129.334 223.893 129.29 223.672L127.474 215.048C127.426 214.827 127.489 214.742 127.701 214.698L128.439 214.541Z" fill="#22403B"/>
<path d="M143.282 210.647C143.488 210.583 143.582 210.623 143.651 210.84L143.862 211.489C143.932 211.706 143.873 211.794 143.671 211.863L139.995 213.035C139.877 213.074 139.853 213.123 139.887 213.225L140.63 215.558C140.669 215.676 140.719 215.701 140.832 215.661L144.074 214.628C144.28 214.564 144.374 214.604 144.443 214.82L144.65 215.459C144.713 215.661 144.659 215.764 144.458 215.828L141.216 216.861C141.102 216.9 141.078 216.95 141.107 217.053L141.875 219.449C141.905 219.552 141.958 219.576 142.072 219.543L145.761 218.367C145.963 218.299 146.062 218.338 146.13 218.554L146.337 219.209C146.406 219.425 146.352 219.513 146.145 219.576L141.309 221.122C141.107 221.186 141.008 221.147 140.94 220.93L138.268 212.561C138.2 212.34 138.254 212.256 138.46 212.188L143.282 210.647Z" fill="#22403B"/>
<path d="M149.723 209.501L148.498 210.012C148.385 210.062 148.37 210.126 148.409 210.225L149.37 212.527C149.409 212.625 149.468 212.66 149.576 212.61L150.978 212.03C152.228 211.507 152.675 210.815 152.312 209.934C151.942 209.043 151.096 208.931 149.723 209.501ZM151.495 213.137L150.048 213.737C149.935 213.785 149.915 213.835 149.959 213.948L150.944 216.316C150.983 216.413 151.042 216.448 151.155 216.399L152.503 215.838C154.023 215.203 154.52 214.549 154.107 213.545C153.718 212.615 152.867 212.566 151.495 213.137ZM149.335 208.33C151.377 207.478 152.883 207.681 153.546 209.274C153.964 210.278 153.748 211.052 153.045 211.695C154.082 211.538 154.953 211.956 155.386 212.999C156.124 214.766 155.205 216.049 152.975 216.979L150.515 218.002C150.314 218.086 150.215 218.051 150.127 217.845L146.752 209.723C146.663 209.516 146.713 209.422 146.91 209.339L149.335 208.33Z" fill="#22403B"/>
<path d="M158.796 205.212L157.502 205.92C157.399 205.979 157.379 206.033 157.434 206.127L160.582 211.868C160.636 211.962 160.691 211.977 160.793 211.918L162.043 211.234C164.173 210.067 164.769 208.222 163.735 206.343C162.757 204.567 160.877 204.065 158.796 205.212ZM158.275 204.041C161.03 202.531 163.602 203.199 164.931 205.626C166.333 208.174 165.467 210.81 162.634 212.365L160.351 213.619C160.164 213.724 160.061 213.703 159.953 213.501L155.711 205.788C155.603 205.586 155.642 205.488 155.83 205.383L158.275 204.041Z" fill="#22403B"/>
<path d="M169.771 196.91C169.948 196.787 170.051 196.797 170.18 196.989L170.563 197.549C170.692 197.741 170.667 197.839 170.489 197.963L167.302 200.128C167.199 200.196 167.188 200.255 167.248 200.344L168.63 202.366C168.694 202.469 168.753 202.479 168.851 202.411L171.666 200.496C171.843 200.378 171.946 200.389 172.074 200.574L172.448 201.126C172.57 201.303 172.546 201.416 172.369 201.539L169.56 203.453C169.462 203.516 169.451 203.576 169.51 203.665L170.928 205.746C170.987 205.835 171.041 205.844 171.144 205.775L174.342 203.596C174.518 203.477 174.622 203.488 174.75 203.674L175.133 204.241C175.262 204.427 175.232 204.53 175.056 204.649L170.859 207.506C170.681 207.625 170.578 207.615 170.451 207.429L165.511 200.167C165.383 199.979 165.413 199.876 165.59 199.758L169.771 196.91Z" fill="#22403B"/>
<path d="M173.35 194.505L181.655 195.941L177.551 191.026C177.404 190.854 177.424 190.751 177.586 190.614L178.161 190.131C178.329 189.993 178.432 189.993 178.579 190.166L184.228 196.926C184.419 197.152 184.439 197.325 184.307 197.437C184.193 197.531 184.031 197.546 183.608 197.482L175.298 196.04L179.406 200.955C179.554 201.132 179.534 201.23 179.372 201.368L178.791 201.851C178.629 201.988 178.525 201.993 178.378 201.816L172.731 195.055C172.534 194.819 172.508 194.667 172.661 194.539C172.775 194.44 172.937 194.432 173.35 194.505Z" fill="#22403B"/>
<path d="M187.001 182.997L186.115 183.984C186.036 184.074 186.052 184.138 186.13 184.211L187.99 185.87C188.069 185.939 188.138 185.948 188.216 185.855L189.225 184.729C190.125 183.72 190.229 182.898 189.52 182.264C188.802 181.618 187.99 181.885 187.001 182.997ZM190.17 185.501L189.127 186.666C189.048 186.76 189.048 186.814 189.142 186.893L191.046 188.6C191.129 188.669 191.193 188.675 191.276 188.586L192.245 187.497C193.343 186.267 193.506 185.462 192.699 184.737C191.946 184.07 191.158 184.389 190.17 185.501ZM186.146 182.106C187.616 180.458 189.058 179.986 190.347 181.136C191.158 181.855 191.296 182.647 190.937 183.528C191.808 182.937 192.777 182.942 193.613 183.689C195.045 184.964 194.769 186.519 193.166 188.315L191.389 190.307C191.247 190.465 191.144 190.479 190.976 190.327L184.418 184.477C184.251 184.33 184.256 184.221 184.394 184.064L186.146 182.106Z" fill="#22403B"/>
<path d="M193.387 175.167L192.586 176.264C192.511 176.363 192.521 176.417 192.61 176.481L195.06 178.271C195.158 178.341 195.212 178.33 195.287 178.232L196.132 177.076C197.047 175.817 197.082 174.863 196.162 174.188C195.217 173.499 194.312 173.898 193.387 175.167ZM192.394 174.36C193.884 172.324 195.425 171.92 196.944 173.027C198.027 173.819 198.312 174.863 197.963 176.048L202.16 176.24C202.297 176.259 202.385 176.275 202.43 176.303C202.503 176.363 202.494 176.465 202.371 176.629L201.899 177.283C201.717 177.529 201.579 177.583 201.249 177.554L197.672 177.351C197.5 177.341 197.417 177.382 197.314 177.524L196.27 178.956C196.201 179.054 196.206 179.107 196.305 179.182L198.809 181.007C198.996 181.145 199.001 181.247 198.872 181.42L198.43 182.031C198.302 182.203 198.204 182.227 198.016 182.094L190.908 176.899C190.721 176.767 190.715 176.658 190.844 176.485L192.394 174.36Z" fill="#22403B"/>
<path d="M196.964 167.659C197.082 167.477 197.181 167.442 197.373 167.565L204.836 172.254C205.032 172.377 205.042 172.48 204.929 172.662L204.531 173.301C204.417 173.484 204.314 173.514 204.123 173.395L196.659 168.702C196.467 168.584 196.452 168.475 196.566 168.294L196.964 167.659Z" fill="#22403B"/>
<path d="M201.587 162.199L200.913 163.508C200.859 163.617 200.874 163.67 200.968 163.72L206.783 166.721C206.881 166.771 206.935 166.755 206.989 166.647L207.639 165.383C208.755 163.228 208.219 161.368 206.315 160.384C204.514 159.455 202.679 160.089 201.587 162.199ZM200.504 161.52C201.946 158.731 204.45 157.85 206.906 159.119C209.493 160.453 210.241 163.12 208.76 165.993L207.565 168.305C207.466 168.492 207.373 168.537 207.171 168.428L199.353 164.394C199.151 164.29 199.127 164.187 199.226 164L200.504 161.52Z" fill="#22403B"/>
<path d="M211.443 148.855C211.517 148.653 211.611 148.604 211.822 148.688L214.695 149.795C214.892 149.874 214.956 149.937 214.971 150.158C215.104 151.334 214.947 152.53 214.489 153.721C213.594 156.136 210.912 157.494 208.309 156.442C205.588 155.433 204.487 152.574 205.505 150.061C205.962 148.87 206.814 147.9 207.713 147.325C207.832 147.241 207.926 147.221 207.999 147.252C208.039 147.265 208.092 147.315 208.157 147.409L208.521 147.955C208.585 148.053 208.595 148.127 208.569 148.206C208.546 148.264 208.497 148.319 208.418 148.377C207.591 148.978 207.011 149.706 206.685 150.543C205.938 152.476 206.818 154.369 208.762 155.118C210.74 155.886 212.649 154.965 213.338 153.189C213.642 152.397 213.77 151.699 213.741 151.069C213.736 150.892 213.706 150.852 213.569 150.798L211.34 149.937C211.128 149.854 211.094 149.755 211.173 149.554L211.443 148.855Z" fill="#22403B"/>
<path d="M209.413 138.301C209.472 138.095 209.555 138.035 209.777 138.095L210.436 138.277C210.652 138.335 210.696 138.428 210.643 138.635L209.624 142.355C209.59 142.472 209.619 142.522 209.722 142.551L212.084 143.196C212.202 143.23 212.252 143.201 212.281 143.083L213.181 139.802C213.235 139.595 213.324 139.535 213.541 139.599L214.19 139.771C214.396 139.83 214.45 139.929 214.396 140.135L213.495 143.417C213.467 143.53 213.491 143.58 213.594 143.609L216.025 144.273C216.128 144.302 216.177 144.273 216.207 144.159L217.23 140.426C217.288 140.219 217.374 140.161 217.595 140.219L218.254 140.401C218.47 140.461 218.515 140.555 218.455 140.761L217.117 145.656C217.063 145.863 216.975 145.921 216.759 145.863L208.286 143.544C208.065 143.481 208.02 143.387 208.079 143.181L209.413 138.301Z" fill="#22403B"/>
</svg>
