<svg width="247" height="255" viewBox="0 0 247 255" fill="none" xmlns="http://www.w3.org/2000/svg">
<path d="M239.846 85.8923C241.029 86.6414 241.92 87.7958 242.355 89.1892C243.281 91.9561 241.739 95.0493 238.806 95.9021C235.878 96.8609 232.823 95.2472 231.96 92.3319C231.53 90.9561 231.647 89.4978 232.164 88.2704C232.201 88.1432 232.257 88.082 232.334 88.0549C232.405 88.0325 232.483 88.0443 232.587 88.0726L233.28 88.314C233.402 88.3529 233.484 88.4236 233.506 88.4954C233.523 88.5508 233.512 88.6497 233.468 88.7758C233.093 89.7888 233.005 90.8889 233.336 91.9349C233.974 93.988 236.087 95.1105 238.31 94.4168C240.445 93.7842 241.656 91.5992 240.974 89.5567C240.637 88.4789 239.994 87.6261 239.043 86.9936C238.921 86.9159 238.855 86.8452 238.833 86.7898C238.812 86.718 238.861 86.6072 238.911 86.5307L239.356 85.9311C239.401 85.8699 239.465 85.8204 239.537 85.7992C239.609 85.7768 239.714 85.8051 239.846 85.8923Z" fill="#22403B"/>
<path d="M229.905 82.0203L230.498 83.4184C230.548 83.5386 230.609 83.5657 230.719 83.5174L233.845 82.1958C233.972 82.1463 233.999 82.0862 233.944 81.959L233.316 80.4784C232.64 78.8729 231.742 78.2886 230.565 78.7904C229.359 79.2958 229.221 80.3971 229.905 82.0203ZM228.562 82.5044C227.46 79.9012 227.962 78.1897 229.899 77.3699C231.285 76.7868 232.447 77.1119 233.388 78.1343L235.991 74.2107C236.085 74.0906 236.151 74.0128 236.205 73.9916C236.304 73.9469 236.398 74.0246 236.486 74.2331L236.839 75.0588C236.971 75.378 236.943 75.5371 236.728 75.8398L234.471 79.1579C234.362 79.3181 234.356 79.423 234.434 79.5985L235.204 81.4254C235.253 81.5526 235.314 81.575 235.441 81.5244L238.638 80.1721C238.874 80.072 238.979 80.1274 239.072 80.3476L239.397 81.1227C239.49 81.3488 239.457 81.4584 239.222 81.5573L230.141 85.3938C229.905 85.4927 229.8 85.4374 229.707 85.2183L228.562 82.5044Z" fill="#22403B"/>
<path d="M227.62 67.399L225.424 70.3873L229.117 70.1234C229.183 70.1187 229.227 70.1128 229.272 70.0905C229.31 70.0693 229.315 70.0139 229.261 69.9197L227.873 67.3931C227.824 67.3059 227.769 67.267 227.719 67.2941C227.692 67.3118 227.659 67.3436 227.62 67.399ZM223.439 70.7572L229.591 62.2256C229.673 62.1266 229.739 62.056 229.778 62.0395C229.899 61.9735 230.003 62.0336 230.102 62.2209L230.499 62.9418C230.653 63.2162 230.637 63.3493 230.411 63.6567L228.759 65.8865C228.644 66.0173 228.65 66.062 228.732 66.2046L230.718 69.8266C230.796 69.9691 230.829 70.0021 231.01 69.9915L233.773 69.7771C234.153 69.7548 234.268 69.8101 234.423 70.0846L234.791 70.7572C234.89 70.9433 234.89 71.0634 234.769 71.1247C234.731 71.147 234.637 71.1635 234.511 71.1859L224.022 71.8243C223.361 71.862 223.163 71.8185 223.07 71.6418C222.976 71.4722 223.047 71.2955 223.439 70.7572Z" fill="#22403B"/>
<path d="M215.826 59.7351C215.694 59.5372 215.705 59.4206 215.914 59.2781L216.547 58.8493C216.757 58.7056 216.866 58.7386 217.004 58.9365L219.458 62.5362C219.529 62.6528 219.595 62.6622 219.696 62.5974L222.143 60.9236C222.243 60.8577 222.254 60.7964 222.177 60.6881L220.019 57.5171C219.876 57.3039 219.904 57.1814 220.114 57.0389L220.734 56.616C220.932 56.477 221.054 56.5053 221.197 56.715L223.354 59.8835C223.432 59.9943 223.492 60.0049 223.591 59.9389L226.777 57.7763C226.987 57.6337 227.096 57.6655 227.234 57.8646L227.708 58.5572C227.84 58.7563 227.828 58.8717 227.619 59.0142L219.496 64.5398C219.282 64.6823 219.173 64.6493 219.041 64.4515L215.826 59.7351Z" fill="#22403B"/>
<path d="M215.136 56.4085C215.291 56.5958 215.285 56.7112 215.091 56.8714L214.498 57.3555C214.3 57.5145 214.184 57.4933 214.035 57.3061L209.303 51.5002C209.154 51.3188 209.154 51.1974 209.353 51.0372L209.946 50.559C210.144 50.3941 210.255 50.4153 210.409 50.6026L212.187 52.7876C212.269 52.8924 212.335 52.8983 212.428 52.8206L219.066 47.4105C219.264 47.2515 219.379 47.2738 219.533 47.4599L220.061 48.1101C220.211 48.2915 220.211 48.4129 220.012 48.5731L213.375 53.9808C213.281 54.0586 213.276 54.1198 213.359 54.2247L215.136 56.4085Z" fill="#22403B"/>
<path d="M202.01 42.1527L203.099 43.1646C203.198 43.2576 203.275 43.2423 203.358 43.154L205.262 41.1068C205.344 41.0184 205.35 40.9478 205.25 40.8523L204.007 39.698C202.895 38.6626 201.977 38.526 201.25 39.3069C200.513 40.0997 200.787 41.0184 202.01 42.1527ZM204.893 38.6579L206.181 39.8523C206.28 39.9454 206.346 39.9395 206.434 39.8405L208.393 37.7391C208.47 37.6508 208.481 37.5789 208.382 37.4859L207.183 36.3681C205.828 35.1136 204.926 34.911 204.1 35.8015C203.33 36.6272 203.672 37.5177 204.893 38.6579ZM200.992 43.0939C199.176 41.4036 198.68 39.7746 200 38.354C200.832 37.4635 201.718 37.3257 202.702 37.7438C202.059 36.7591 202.086 35.6754 202.945 34.7508C204.409 33.1771 206.142 33.5175 208.123 35.3551L210.314 37.3917C210.489 37.5577 210.506 37.672 210.33 37.8593L203.616 45.0798C203.446 45.2671 203.324 45.2624 203.149 45.0963L200.992 43.0939Z" fill="#22403B"/>
<path d="M190.469 34.3123C190.282 34.1697 190.255 34.0531 190.414 33.8493L190.883 33.2451C191.036 33.0472 191.157 33.0413 191.344 33.1897L194.761 35.8376C194.872 35.9189 194.932 35.9142 195.009 35.82L196.687 33.6467C196.776 33.5431 196.765 33.4759 196.66 33.3935L193.645 31.0542C193.452 30.9116 193.43 30.7962 193.585 30.5924L194.046 29.9988C194.195 29.8115 194.322 29.795 194.508 29.9434L197.525 32.2757C197.629 32.3593 197.694 32.3534 197.766 32.2604L199.494 30.0259C199.572 29.9316 199.56 29.8716 199.455 29.7832L196.028 27.1247C195.835 26.9822 195.813 26.8667 195.966 26.6629L196.434 26.0575C196.594 25.8537 196.71 25.8537 196.902 25.9974L201.399 29.4864C201.586 29.6348 201.613 29.7502 201.453 29.9493L195.422 37.7353C195.262 37.9331 195.147 37.939 194.955 37.7906L190.469 34.3123Z" fill="#22403B"/>
<path d="M182.267 28.8514C182.063 28.7253 182.03 28.6099 182.168 28.3943L182.586 27.75C182.724 27.5368 182.839 27.5203 183.043 27.6511L186.685 30.0069C186.796 30.0787 186.862 30.0681 186.923 29.9633L188.419 27.6511C188.491 27.5368 188.479 27.4756 188.363 27.4037L185.156 25.3294C184.952 25.1975 184.919 25.0821 185.057 24.8677L185.463 24.2399C185.597 24.0361 185.723 24.009 185.92 24.1409L189.135 26.2164C189.25 26.2871 189.31 26.2753 189.376 26.1716L190.912 23.7946C190.978 23.6957 190.962 23.6344 190.851 23.5579L187.197 21.1973C186.994 21.0713 186.961 20.9547 187.098 20.7391L187.516 20.096C187.654 19.8816 187.77 19.8651 187.974 19.9971L192.761 23.0949C192.964 23.2222 192.997 23.3376 192.861 23.552L187.5 31.8456C187.362 32.06 187.247 32.0706 187.043 31.9446L182.267 28.8514Z" fill="#22403B"/>
<path d="M176.783 24.0947L178.12 24.8003C178.241 24.8592 178.303 24.8438 178.357 24.7331L179.93 21.746C179.992 21.6235 179.975 21.5646 179.854 21.5033L178.439 20.7542C176.904 19.9461 175.842 20.0663 175.248 21.1888C174.643 22.3455 175.232 23.2808 176.783 24.0947ZM176.056 25.3162C173.564 24.0075 172.87 22.3726 173.844 20.5186C174.544 19.1981 175.644 18.7081 177.008 18.906L176.536 14.2451C176.536 14.0907 176.536 13.9918 176.563 13.9364C176.612 13.8434 176.734 13.8434 176.931 13.9423L177.724 14.3593C178.033 14.5254 178.109 14.662 178.132 15.0319L178.495 19.0109C178.511 19.2029 178.566 19.2853 178.742 19.3737L180.488 20.2971C180.608 20.3584 180.668 20.3372 180.729 20.2206L182.342 17.1604C182.457 16.9354 182.572 16.913 182.787 17.0237L183.524 17.4136C183.739 17.5243 183.783 17.6351 183.662 17.86L179.094 26.5436C178.979 26.7697 178.863 26.7921 178.649 26.6814L176.056 25.3162Z" fill="#22403B"/>
<path d="M161.89 17.6216L163.283 18.1163C163.414 18.1611 163.476 18.1163 163.513 18.0068L164.444 15.3824C164.483 15.2717 164.46 15.1998 164.333 15.1562L162.737 14.5897C161.312 14.0879 160.42 14.3246 160.069 15.327C159.705 16.3448 160.321 17.0656 161.89 17.6216ZM163.134 13.2846L164.786 13.8676C164.912 13.9171 164.972 13.89 165.016 13.764L165.968 11.0677C166.007 10.957 165.985 10.8852 165.859 10.8416L164.323 10.2962C162.589 9.68017 161.686 9.85685 161.279 10.9959C160.905 12.0513 161.571 12.7357 163.134 13.2846ZM161.334 18.8808C159.007 18.0621 157.905 16.7676 158.55 14.9466C158.957 13.8087 159.711 13.3281 160.774 13.3246C159.799 12.6803 159.392 11.6779 159.81 10.4941C160.519 8.47517 162.242 8.10059 164.78 8.99816L167.585 9.98878C167.812 10.0712 167.873 10.1702 167.789 10.4128L164.516 19.6629C164.432 19.9009 164.323 19.9444 164.098 19.8608L161.334 18.8808Z" fill="#22403B"/>
<path d="M149.766 14.1682C151.857 14.6688 153.921 13.419 154.471 11.1516C155.043 8.97363 153.744 6.84869 151.67 6.39755C149.622 5.85218 147.433 7.18439 146.949 9.36941C146.403 11.6369 147.675 13.6617 149.766 14.1682ZM145.423 9.01721C146.096 6.04064 149.039 4.22903 152.023 5.01116C154.961 5.65429 156.744 8.57668 155.996 11.5049C155.319 14.4827 152.358 16.3202 149.42 15.5499C146.453 14.8832 144.669 11.962 145.423 9.01721Z" fill="#22403B"/>
<path d="M142.169 12.392C142.406 12.425 142.482 12.5133 142.449 12.7607L142.35 13.5204C142.317 13.7737 142.218 13.8396 141.976 13.8066L134.541 12.816C134.305 12.783 134.221 12.7006 134.256 12.4473L134.36 11.6876C134.392 11.4355 134.491 11.3743 134.729 11.4014L137.524 11.7759C137.662 11.7924 137.712 11.7535 137.727 11.6381L138.855 3.12539C138.888 2.87214 138.987 2.81089 139.23 2.84505L140.06 2.95341C140.298 2.98757 140.38 3.07003 140.342 3.32328L139.213 11.8301C139.197 11.9514 139.236 12.0021 139.368 12.0245L142.169 12.392Z" fill="#22403B"/>
<path d="M131.704 11.0805C131.941 11.0923 132.029 11.1736 132.019 11.4268L131.98 12.1866C131.969 12.4446 131.875 12.5117 131.638 12.4999L124.16 12.1595C123.917 12.1477 123.829 12.0712 123.841 11.812L123.878 11.0534C123.89 10.8002 123.983 10.7283 124.22 10.7389L127.039 10.865C127.169 10.8709 127.219 10.8332 127.225 10.7119L127.616 2.15437C127.626 1.89523 127.721 1.82927 127.962 1.83987L128.798 1.87874C129.035 1.88934 129.124 1.96708 129.113 2.22151L128.716 10.7778C128.71 10.8991 128.755 10.9486 128.893 10.9545L131.704 11.0805Z" fill="#22403B"/>
<path d="M119.743 12.2507C119.506 12.2625 119.413 12.1906 119.401 11.9374L119.055 3.3799C119.055 3.25858 119.006 3.21499 118.874 3.22088L114.46 3.39639C114.219 3.40699 114.124 3.33632 114.114 3.08307L114.086 2.31743C114.075 2.06536 114.163 1.98762 114.399 1.97584L120.161 1.74615C120.398 1.73437 120.491 1.80622 120.503 2.05947L120.899 11.8773C120.91 12.1294 120.822 12.2071 120.585 12.2189L119.743 12.2507Z" fill="#22403B"/>
<path d="M105.348 13.4675C105.106 13.5004 105.007 13.4357 104.98 13.1824L104.886 12.4215C104.858 12.1682 104.936 12.087 105.173 12.0599L109.459 11.5357C109.591 11.5204 109.63 11.4709 109.618 11.3496L109.288 8.63099C109.273 8.49317 109.222 8.4543 109.085 8.47079L105.309 8.93253C105.068 8.9608 104.975 8.89484 104.941 8.64159L104.853 7.89833C104.821 7.66157 104.903 7.56263 105.14 7.52964L108.915 7.07262C109.053 7.0573 109.09 7.00783 109.074 6.88651L108.738 4.09016C108.722 3.97472 108.672 3.93114 108.54 3.94763L104.237 4.46945C104 4.5036 103.901 4.43764 103.873 4.18439L103.779 3.42464C103.747 3.17139 103.83 3.08894 104.067 3.05596L109.706 2.37395C109.943 2.34686 110.042 2.40575 110.07 2.659L111.259 12.4215C111.287 12.6759 111.209 12.7572 110.968 12.7855L105.348 13.4675Z" fill="#22403B"/>
<path d="M94.4951 7.28176C93.4279 6.82945 92.4538 6.7093 91.568 6.94017C90.2299 7.28648 89.5314 8.12397 89.7788 9.06511C90.0096 9.96621 90.6481 10.1594 92.5139 10.1535C94.6765 10.1323 95.9698 10.5552 96.4104 12.2561C96.8886 14.1054 95.7001 15.6072 93.7518 16.1137C92.5303 16.4341 91.3301 16.3446 90.1427 15.8275C90.0214 15.7839 89.9554 15.7226 89.939 15.6508C89.9225 15.5919 89.9496 15.5083 89.9825 15.3928L90.2417 14.6555C90.2794 14.5223 90.3406 14.4576 90.4172 14.4411C90.489 14.4199 90.5656 14.4293 90.6869 14.4788C91.6057 14.8427 92.4974 14.9853 93.4114 14.7438C94.5175 14.4576 95.15 13.6707 94.9085 12.7402C94.66 11.799 93.9167 11.6176 92.2335 11.64C89.873 11.6506 88.7116 11.1783 88.2934 9.55983C87.814 7.7329 89.0579 6.13566 91.237 5.57027C92.5633 5.22278 93.8343 5.40418 95.0075 5.92246C95.1394 5.99313 95.216 6.05439 95.2325 6.12624C95.2548 6.19691 95.2431 6.27937 95.1936 6.40069L94.9191 7.12157C94.8744 7.24289 94.8143 7.31946 94.7425 7.34184C94.6989 7.35362 94.6164 7.32535 94.4951 7.28176Z" fill="#22403B"/>
<path d="M85.676 18.3014C85.451 18.3839 85.3403 18.345 85.2519 18.1083L83.9091 14.4379C83.8714 14.3284 83.8055 14.2848 83.6783 14.3343L79.0114 16.0399C78.8854 16.0893 78.863 16.1612 78.9018 16.2707L80.2447 19.9364C80.3318 20.1778 80.2717 20.2768 80.0468 20.3592L79.2587 20.6514C79.0338 20.7326 78.9242 20.6949 78.8359 20.4535L75.4506 11.2022C75.3634 10.9654 75.4235 10.8618 75.6496 10.7782L76.4365 10.4919C76.6615 10.4095 76.7722 10.4483 76.8605 10.6851L78.3011 14.6193C78.34 14.7359 78.4012 14.763 78.5273 14.7135L83.1941 13.0079C83.3202 12.9632 83.3484 12.9031 83.3037 12.7924L81.8678 8.85699C81.7795 8.61552 81.8407 8.51657 82.0657 8.43412L82.8525 8.142C83.0787 8.06072 83.1882 8.09842 83.2766 8.34107L86.6607 17.5912C86.749 17.8279 86.6878 17.9328 86.4628 18.0152L85.676 18.3014Z" fill="#22403B"/>
<path d="M70.5285 23.3894C72.4485 22.4152 73.2083 20.1254 72.1576 18.0464C71.1775 16.0157 68.8111 15.2394 66.9453 16.2418C65.0312 17.1547 64.222 19.5859 65.2786 21.5683C66.3293 23.6485 68.6132 24.3576 70.5285 23.3894ZM63.8863 22.288C62.4658 19.5824 63.5341 16.296 66.3128 14.9591C68.9654 13.5444 72.2176 14.6128 73.544 17.3302C74.9645 20.0323 73.8961 23.3517 71.1611 24.6721C68.4695 26.0809 65.2185 25.0184 63.8863 22.288Z" fill="#22403B"/>
<path d="M59.8477 29.2758L61.0645 28.483C61.174 28.4124 61.1905 28.3452 61.1245 28.2463L59.0338 25.0318C58.9666 24.9328 58.8959 24.9057 58.7852 24.9823L57.5637 25.775C56.0949 26.728 55.6049 27.8729 56.3917 29.0767C57.1727 30.2817 58.3235 30.2664 59.8477 29.2758ZM60.5462 30.5196C58.1468 32.0768 56.3375 31.846 55.1043 29.9519C53.8604 28.0425 54.4541 26.1001 56.8264 24.5536L58.009 23.7891C58.1197 23.7114 58.1362 23.6513 58.0702 23.5523L56.4518 21.0646C56.314 20.8502 56.3481 20.7395 56.546 20.6087L57.2504 20.1517C57.4542 20.0245 57.5696 20.0351 57.7074 20.2507L63.0669 28.483C63.2047 28.6974 63.1717 28.8081 62.968 28.9401L60.5462 30.5196Z" fill="#22403B"/>
<path d="M42.4767 36.9345L45.8561 38.4587L44.8266 34.9026C44.8101 34.8378 44.7937 34.7942 44.7607 34.7601C44.7336 34.7271 44.6782 34.733 44.6005 34.8036L42.4214 36.6859C42.3389 36.7531 42.3165 36.812 42.3554 36.8626C42.3719 36.885 42.4166 36.9074 42.4767 36.9345ZM46.6312 40.3186L37.0124 36.0864C36.897 36.0263 36.8133 35.9768 36.7863 35.9439C36.6979 35.839 36.7368 35.7295 36.897 35.5905L37.5236 35.0522C37.7604 34.8437 37.8876 34.8319 38.2386 34.9862L40.7593 36.1359C40.9136 36.2242 40.9572 36.2077 41.0844 36.0982L44.2047 33.4008C44.326 33.2959 44.3531 33.2523 44.2978 33.0816L43.5168 30.4301C43.4179 30.0602 43.445 29.9342 43.6876 29.7257L44.266 29.2298C44.425 29.092 44.5404 29.0637 44.6287 29.1685C44.6617 29.2027 44.6947 29.2911 44.7383 29.4112L47.5511 39.5259C47.7266 40.1702 47.7219 40.3681 47.5782 40.4941C47.4298 40.6213 47.2378 40.5883 46.6312 40.3186Z" fill="#22403B"/>
<path d="M40.7282 46.209L31.3014 45.7803L36.5513 50.6603C36.7386 50.8323 36.7327 50.9524 36.5678 51.1291L35.9953 51.7452C35.8304 51.9219 35.715 51.9313 35.5277 51.7617L28.3071 45.0488C28.0657 44.8214 28.0162 44.6353 28.1481 44.4916C28.2624 44.3703 28.4391 44.3326 28.9244 44.3432L38.3452 44.7779L33.0953 39.8978C32.908 39.7199 32.9186 39.6057 33.0788 39.429L33.6513 38.813C33.8162 38.6363 33.9316 38.621 34.1189 38.7965L41.3395 45.5093C41.5916 45.7414 41.641 45.9122 41.4879 46.0771C41.3772 46.1972 41.1958 46.2361 40.7282 46.209Z" fill="#22403B"/>
<path d="M30.0194 56.9057L30.9994 55.5841C31.0807 55.4746 31.0701 55.4086 30.977 55.3426L25.0993 50.9726C25.0062 50.9066 24.9402 50.9125 24.8625 51.0221L23.9166 52.2989C22.2923 54.478 22.5456 56.6254 24.4726 58.0553C26.2936 59.4088 28.4339 59.0354 30.0194 56.9057ZM31.0924 57.8516C28.9958 60.6691 26.0734 61.1874 23.5915 59.3428C20.9778 57.4063 20.6303 54.3249 22.7882 51.4249L24.5221 49.0903C24.6646 48.8983 24.78 48.8712 24.9838 49.0196L32.8805 54.8856C33.0843 55.0399 33.0949 55.1553 32.9523 55.3485L31.0924 57.8516Z" fill="#22403B"/>
<path d="M16.3688 69.9004L17.2051 68.3597C17.2664 68.2443 17.2499 68.1842 17.1286 68.117L14.6196 66.753C14.5148 66.6977 14.4371 66.7094 14.377 66.8249L13.596 68.2607C12.7208 69.878 12.7479 70.798 13.8163 71.3763C14.7998 71.9099 15.5761 71.3586 16.3688 69.9004ZM20.4573 71.811L21.1617 70.5129C21.2277 70.3904 21.1959 70.3244 21.091 70.2644L18.6422 68.938C18.5373 68.8827 18.4655 68.8945 18.3995 69.0087L17.5962 70.4952C16.8753 71.8274 16.9684 72.7462 17.9048 73.2527C18.8507 73.7698 19.6658 73.2739 20.4573 71.811ZM21.6187 72.5589C20.442 74.7322 18.9885 75.6132 17.2935 74.6933C16.2251 74.1161 15.8741 73.2904 16.0331 72.2397C15.2404 73.1043 14.1897 73.3517 13.0836 72.7521C11.2013 71.7285 11.1024 69.9734 12.3851 67.6058L13.8045 64.9862C13.92 64.7765 14.0307 64.7329 14.2498 64.8542L22.885 69.5376C23.1053 69.6589 23.1324 69.7744 23.0169 69.9828L21.6187 72.5589Z" fill="#22403B"/>
<path d="M10.8391 81.843L14.5425 81.6887L12.0335 78.9748C11.9899 78.9253 11.9558 78.8935 11.9122 78.8758C11.8733 78.8605 11.8239 78.8876 11.7862 78.9865L10.6789 81.6451C10.6412 81.7381 10.646 81.8041 10.7013 81.8312C10.7296 81.843 10.7732 81.843 10.8391 81.843ZM16.0726 83.0091L5.57272 83.5333C5.44551 83.5274 5.35245 83.5215 5.30887 83.4991C5.18754 83.4496 5.17105 83.3295 5.25351 83.1363L5.56683 82.3766C5.68816 82.0844 5.7977 82.0138 6.17816 81.9973L8.95095 81.8983C9.12764 81.903 9.15473 81.8701 9.22069 81.7169L10.8062 77.9076C10.8662 77.7592 10.8721 77.7097 10.7449 77.5778L8.8579 75.5577C8.60465 75.2726 8.57756 75.1454 8.69888 74.8592L8.98982 74.1501C9.07228 73.9569 9.16651 73.885 9.29255 73.9345C9.33142 73.951 9.40327 74.017 9.49632 74.1006L16.5402 81.8865C16.9807 82.3824 17.0691 82.5638 16.9972 82.7452C16.9207 82.9266 16.7322 82.9761 16.0726 83.0091Z" fill="#22403B"/>
<path d="M11.6283 92.7786L12.0688 91.3262C12.1077 91.1931 12.0794 91.1378 11.964 91.1048L8.71765 90.1142C8.59044 90.0765 8.53625 90.1036 8.49738 90.2367L8.02386 91.7715C7.51736 93.4335 7.83069 94.4571 9.05217 94.8305C10.3019 95.2098 11.1159 94.4571 11.6283 92.7786ZM12.9711 93.2627C12.1454 95.9648 10.6659 96.9555 8.6564 96.3441C7.22053 95.9036 6.53263 94.9083 6.47256 93.5266L1.96472 94.8647C1.81159 94.8977 1.71147 94.913 1.65728 94.8977C1.55245 94.8647 1.53007 94.7492 1.59132 94.5278L1.85517 93.6703C1.96 93.3405 2.08015 93.2356 2.44412 93.1426L6.29588 92.0412C6.48316 91.9918 6.55384 91.9152 6.6092 91.7267L7.18755 89.8338C7.22642 89.7078 7.19815 89.6477 7.06623 89.6089L3.75278 88.5959C3.50542 88.5252 3.46183 88.4145 3.53251 88.1836L3.77516 87.3803C3.84701 87.1494 3.94595 87.0881 4.1886 87.1588L13.6095 90.0376C13.8521 90.1095 13.9016 90.219 13.8298 90.4499L12.9711 93.2627Z" fill="#22403B"/>
<path d="M9.7769 154.658C9.71564 154.427 9.76629 154.316 10.0078 154.256L10.751 154.063C10.9984 153.997 11.0914 154.063 11.1527 154.299L11.8406 156.931C11.9007 157.162 11.8512 157.267 11.6038 157.333L2.07222 159.814C1.82486 159.875 1.72591 159.809 1.66466 159.578L1.45617 158.763C1.39492 158.532 1.44439 158.421 1.69293 158.362L9.99127 156.199C10.1185 156.165 10.1503 156.11 10.1185 155.978L9.7769 154.658Z" fill="#22403B"/>
<path d="M5.2911 164.414C5.00486 165.382 5.01075 166.317 5.32408 167.215C5.86356 168.789 6.94723 169.399 8.12514 168.992C9.29126 168.591 9.57278 167.381 9.08277 165.959C8.78476 165.114 8.30653 164.309 7.83302 163.726C7.75056 163.627 7.71287 163.56 7.70698 163.545C7.65751 163.402 7.76234 163.291 8.0097 163.22L12.792 161.805C13.0947 161.718 13.2208 161.767 13.3362 162.091L15.1466 167.341C15.235 167.584 15.1914 167.693 14.9487 167.776L14.2279 168.029C13.9852 168.113 13.8863 168.051 13.805 167.81L12.3515 163.609C12.3079 163.483 12.2466 163.456 12.1206 163.501L9.67644 164.233C10.0345 164.711 10.3208 165.277 10.541 165.916C11.2725 168.029 10.541 169.806 8.72469 170.434C6.84829 171.083 4.84467 170.203 3.96477 167.65C3.55722 166.472 3.54073 165.273 3.90352 164.078C3.96477 163.936 4.00364 163.858 4.10259 163.825C4.17326 163.798 4.25689 163.803 4.37233 163.825L5.06494 163.985C5.20275 164.012 5.28521 164.068 5.30759 164.14C5.32997 164.21 5.32997 164.288 5.2911 164.414Z" fill="#22403B"/>
<path d="M18.7403 176.678L16.2467 182.708L22.6038 184.014C23.055 184.135 23.1763 184.173 23.247 184.315C23.3518 184.514 23.2576 184.652 22.9501 184.811L14.2772 189.373C14.0522 189.494 13.9474 189.445 13.8367 189.235L13.4456 188.493C13.3302 188.285 13.3585 188.168 13.5834 188.047L19.7521 184.805L15.1029 183.87C14.6789 183.805 14.5635 183.744 14.4857 183.601C14.4092 183.458 14.4315 183.326 14.6129 182.939L16.4787 178.581L10.3089 181.829C10.0839 181.944 9.97434 181.9 9.86361 181.686L9.47255 180.949C9.363 180.733 9.38538 180.619 9.61036 180.502L18.2833 175.94C18.5919 175.78 18.7568 175.774 18.8616 175.973C18.9382 176.122 18.8887 176.282 18.7403 176.678Z" fill="#22403B"/>
<path d="M23.648 195.885L25.5409 192.711L21.9035 193.327C21.8375 193.331 21.7881 193.343 21.7551 193.37C21.7162 193.399 21.7162 193.454 21.7775 193.535L23.3947 195.912C23.4501 196.002 23.5102 196.034 23.5596 196.002C23.5879 195.984 23.615 195.946 23.648 195.885ZM27.4832 192.155L22.1779 201.212C22.1073 201.316 22.0519 201.394 22.013 201.421C21.9035 201.493 21.7939 201.444 21.6726 201.267L21.2097 200.585C21.0342 200.327 21.0401 200.2 21.2262 199.87L22.6632 197.498C22.7622 197.36 22.7504 197.31 22.6573 197.174L20.3404 193.772C20.2474 193.635 20.2085 193.607 20.033 193.635L17.3085 194.114C16.9339 194.169 16.8126 194.124 16.6371 193.865L16.2083 193.232C16.087 193.057 16.0752 192.942 16.1906 192.865C16.2236 192.837 16.3179 192.816 16.4439 192.781L26.8012 191.152C27.4561 191.049 27.654 191.076 27.7647 191.236C27.8743 191.394 27.8201 191.582 27.4832 192.155Z" fill="#22403B"/>
<path d="M33.194 201.18L32.2257 200.02C32.1374 199.915 32.0714 199.909 31.9831 199.986L29.3799 202.166C29.2762 202.247 29.2704 202.315 29.3528 202.419L30.387 203.651C31.5048 204.988 32.5332 205.279 33.5132 204.461C34.5156 203.623 34.3224 202.529 33.194 201.18ZM34.3389 200.327C36.1493 202.49 36.1717 204.273 34.5592 205.622C33.4083 206.584 32.1975 206.617 31.0042 205.914L29.6602 210.421C29.6061 210.563 29.5672 210.656 29.5236 210.695C29.4412 210.761 29.3257 210.718 29.182 210.547L28.6048 209.853C28.3846 209.589 28.3681 209.43 28.4835 209.077L29.6661 205.248C29.7274 205.06 29.705 204.967 29.579 204.813L28.308 203.293C28.2197 203.189 28.1584 203.184 28.0536 203.271L25.3903 205.495C25.1924 205.66 25.077 205.637 24.9227 205.456L24.3832 204.807C24.2301 204.626 24.2301 204.51 24.428 204.345L31.989 198.027C32.1821 197.862 32.2976 197.884 32.4507 198.065L34.3389 200.327Z" fill="#22403B"/>
<path d="M40.263 206.927C40.4338 207.099 40.4444 207.213 40.263 207.394L33.3287 214.39C33.1473 214.571 33.0318 214.56 32.8611 214.39L32.2615 213.795C32.0907 213.629 32.0801 213.509 32.2615 213.328L39.2005 206.338C39.3772 206.158 39.4927 206.162 39.6635 206.333L40.263 206.927ZM37.4125 211.038L43.3338 210.483C43.719 210.438 43.8344 210.471 44.0606 210.691L44.7544 211.379C44.891 211.516 44.9134 211.621 44.8356 211.698C44.7979 211.737 44.7202 211.769 44.6165 211.769L38.343 212.32L37.8247 218.765C37.8035 218.891 37.7859 218.979 37.7541 219.012C37.6763 219.084 37.5609 219.057 37.4231 218.919L36.6857 218.188C36.4442 217.945 36.4219 217.84 36.449 217.466L36.9884 211.439C36.999 211.303 37.0438 211.198 37.0933 211.143C37.1592 211.081 37.2641 211.038 37.4125 211.038Z" fill="#22403B"/>
<path d="M51.7619 217.404C51.9433 217.559 51.9657 217.669 51.8055 217.867L51.3166 218.456C51.1565 218.648 51.041 218.648 50.8537 218.5L47.5356 215.748C47.4307 215.665 47.3695 215.67 47.2929 215.76L45.5437 217.872C45.4601 217.971 45.466 218.037 45.5708 218.119L48.4979 220.547C48.6805 220.701 48.7017 220.816 48.5368 221.01L48.0633 221.587C47.909 221.768 47.7829 221.785 47.6015 221.631L44.6733 219.203C44.5696 219.122 44.5025 219.126 44.4318 219.221L42.6319 221.383C42.5601 221.476 42.566 221.538 42.6708 221.625L45.9996 224.382C46.1822 224.537 46.2034 224.652 46.0443 224.844L45.5543 225.433C45.3941 225.631 45.274 225.631 45.0914 225.478L40.7226 221.862C40.5412 221.707 40.5188 221.593 40.6778 221.4L46.9407 213.839C47.1056 213.641 47.2222 213.641 47.4036 213.795L51.7619 217.404Z" fill="#22403B"/>
<path d="M53.639 220.644C53.4411 220.513 53.4081 220.396 53.5506 220.187L53.9853 219.56C54.1337 219.35 54.2503 219.341 54.4423 219.477L60.5945 223.736C60.7877 223.868 60.8206 223.985 60.6781 224.194L60.2423 224.821C60.0998 225.031 59.9784 225.04 59.7864 224.904L57.4742 223.302C57.3647 223.224 57.2987 223.236 57.2327 223.335L52.3621 230.368C52.2184 230.578 52.1041 230.588 51.9051 230.451L51.2172 229.977C51.0193 229.84 50.9863 229.724 51.1359 229.515L55.9995 222.483C56.0713 222.388 56.0607 222.323 55.95 222.245L53.639 220.644Z" fill="#22403B"/>
<path d="M64.1018 235.255C64.5919 236.301 65.235 237.039 66.0501 237.456C67.2763 238.089 68.3494 237.935 68.8017 237.07C69.2257 236.246 68.8783 235.672 67.4919 234.435C65.8687 233.01 65.1914 231.832 65.9947 230.274C66.8699 228.58 68.7569 228.255 70.5462 229.18C71.6628 229.757 72.4991 230.626 73.0386 231.798C73.0999 231.915 73.1046 232.002 73.0716 232.069C73.0445 232.118 72.9668 232.168 72.8678 232.234L72.1858 232.608C72.0645 232.679 71.9773 232.684 71.9102 232.646C71.8395 232.613 71.7889 232.553 71.7288 232.436C71.2941 231.557 70.7217 230.858 69.8854 230.422C68.8724 229.9 67.877 230.059 67.4365 230.912C66.9912 231.783 67.4259 232.409 68.691 233.521C70.4472 235.083 70.9973 236.212 70.2328 237.692C69.3683 239.371 67.3764 239.729 65.3775 238.695C64.1678 238.073 63.3374 237.088 62.8085 235.921C62.7649 235.777 62.7484 235.684 62.7802 235.618C62.8144 235.552 62.8745 235.497 62.9899 235.441L63.6778 235.083C63.7932 235.03 63.8863 235.007 63.9534 235.04C63.997 235.062 64.0406 235.139 64.1018 235.255Z" fill="#22403B"/>
<path d="M75.8042 233.47C75.584 233.382 75.5286 233.278 75.6228 233.042L75.9091 232.331C76.0021 232.095 76.1128 232.056 76.3378 232.15L83.2992 234.945C83.5254 235.033 83.5808 235.138 83.4865 235.374L83.2003 236.084C83.1014 236.321 82.9918 236.354 82.7715 236.266L80.1519 235.215C80.0247 235.164 79.9646 235.188 79.921 235.303L76.723 243.271C76.6299 243.507 76.5192 243.541 76.2942 243.453L75.518 243.14C75.2918 243.051 75.2377 242.947 75.3307 242.711L78.5287 234.741C78.5723 234.631 78.5499 234.572 78.4239 234.522L75.8042 233.47Z" fill="#22403B"/>
<path d="M88.9517 238.302L87.5041 237.874C87.3721 237.835 87.3168 237.862 87.2838 237.979L86.3097 241.224C86.272 241.351 86.3038 241.406 86.431 241.445L87.967 241.907C89.6337 242.407 90.6514 242.084 91.0201 240.861C91.3888 239.611 90.6302 238.809 88.9517 238.302ZM89.4299 236.964C92.1321 237.769 93.1286 239.244 92.529 241.252C92.0991 242.689 91.1096 243.382 89.7279 243.448L91.0861 247.945C91.1202 248.093 91.1414 248.192 91.1202 248.246C91.092 248.351 90.9765 248.379 90.7563 248.312L89.8976 248.053C89.5678 247.954 89.4641 247.828 89.3699 247.476L88.2473 243.635C88.1978 243.448 88.1201 243.377 87.934 243.322L86.0399 242.754C85.9092 242.716 85.8538 242.744 85.8149 242.875L84.8243 246.189C84.7478 246.436 84.6429 246.48 84.4121 246.415L83.6075 246.172C83.3767 246.1 83.3166 246.007 83.3873 245.759L86.2048 236.344C86.2826 236.095 86.3874 236.052 86.6183 236.119L89.4299 236.964Z" fill="#22403B"/>
<path d="M102.925 240.201C103.162 240.244 103.234 240.337 103.183 240.585L103.035 241.34C102.985 241.587 102.88 241.643 102.645 241.599L98.4127 240.757C98.2807 240.729 98.2254 240.763 98.203 240.883L97.6694 243.573C97.6423 243.706 97.6753 243.756 97.8072 243.783L101.544 244.526C101.78 244.576 101.852 244.664 101.803 244.917L101.659 245.649C101.61 245.885 101.505 245.957 101.269 245.908L97.5316 245.165C97.3997 245.142 97.3502 245.175 97.329 245.291L96.7777 248.059C96.7506 248.175 96.7895 248.229 96.9214 248.252L101.17 249.1C101.406 249.144 101.478 249.237 101.428 249.484L101.28 250.238C101.23 250.485 101.125 250.541 100.895 250.497L95.3195 249.385C95.0827 249.341 95.0121 249.248 95.0615 249L96.9768 239.353C97.0263 239.105 97.1299 239.05 97.3667 239.095L102.925 240.201Z" fill="#22403B"/>
<path d="M112.794 241.513C113.031 241.54 113.114 241.628 113.081 241.88L112.998 242.64C112.965 242.889 112.866 242.955 112.629 242.926L108.348 242.432C108.21 242.415 108.16 242.454 108.15 242.574L107.837 245.299C107.82 245.431 107.859 245.48 107.99 245.496L111.771 245.931C112.007 245.958 112.09 246.048 112.057 246.3L111.974 247.043C111.947 247.28 111.848 247.356 111.612 247.328L107.831 246.893C107.699 246.878 107.649 246.917 107.633 247.037L107.308 249.832C107.297 249.954 107.336 250.003 107.468 250.021L111.771 250.516C112.007 250.543 112.084 250.625 112.057 250.878L111.969 251.638C111.942 251.891 111.843 251.957 111.606 251.93L105.965 251.275C105.728 251.248 105.646 251.165 105.679 250.911L106.807 241.155C106.834 240.901 106.933 240.835 107.171 240.863L112.794 241.513Z" fill="#22403B"/>
<path d="M115.962 243.181C115.725 243.175 115.638 243.104 115.643 242.845L115.659 242.085C115.665 241.827 115.758 241.755 115.995 241.761L123.479 241.931C123.716 241.937 123.804 242.015 123.798 242.273L123.782 243.032C123.776 243.29 123.683 243.362 123.446 243.356L120.634 243.29C120.497 243.286 120.453 243.329 120.447 243.45L120.254 252.008C120.249 252.261 120.155 252.338 119.912 252.333L119.077 252.311C118.839 252.305 118.752 252.228 118.758 251.975L118.95 243.417C118.956 243.296 118.911 243.253 118.779 243.247L115.962 243.181Z" fill="#22403B"/>
<path d="M134.388 246.518C134.45 247.224 133.93 247.856 133.216 247.917C132.511 247.977 131.878 247.444 131.818 246.738C131.757 246.034 132.285 245.403 132.99 245.342C133.712 245.28 134.328 245.814 134.388 246.518Z" fill="#22403B"/>
<path d="M143.666 239.977C143.903 239.928 144.002 239.983 144.057 240.236L144.861 244.055C144.888 244.175 144.943 244.225 145.075 244.198L149.94 243.174C150.072 243.142 150.105 243.075 150.082 242.96L149.274 239.135C149.225 238.888 149.295 238.793 149.532 238.744L150.352 238.568C150.589 238.519 150.694 238.574 150.749 238.826L152.78 248.473C152.829 248.722 152.757 248.815 152.521 248.864L151.701 249.034C151.464 249.085 151.359 249.03 151.304 248.782L150.446 244.676C150.418 244.562 150.364 244.527 150.232 244.556L145.366 245.579C145.235 245.606 145.201 245.662 145.223 245.777L146.088 249.876C146.138 250.131 146.066 250.224 145.835 250.273L145.009 250.444C144.772 250.493 144.667 250.438 144.618 250.191L142.587 240.544C142.533 240.296 142.604 240.202 142.841 240.153L143.666 239.977Z" fill="#22403B"/>
<path d="M160.269 235.622C160.5 235.55 160.605 235.595 160.682 235.837L160.918 236.563C160.996 236.805 160.93 236.904 160.704 236.981L156.593 238.292C156.461 238.335 156.434 238.391 156.472 238.505L157.303 241.114C157.347 241.246 157.402 241.274 157.528 241.23L161.155 240.074C161.386 240.002 161.491 240.047 161.569 240.288L161.799 241.003C161.87 241.23 161.81 241.345 161.585 241.417L157.958 242.572C157.831 242.616 157.804 242.671 157.837 242.787L158.696 245.467C158.729 245.582 158.789 245.609 158.916 245.571L163.042 244.257C163.268 244.18 163.379 244.224 163.456 244.465L163.686 245.198C163.764 245.439 163.703 245.538 163.472 245.609L158.062 247.338C157.837 247.41 157.726 247.366 157.65 247.124L154.661 237.762C154.585 237.514 154.645 237.421 154.876 237.345L160.269 235.622Z" fill="#22403B"/>
<path d="M167.475 234.34L166.103 234.911C165.977 234.966 165.961 235.038 166.005 235.149L167.079 237.724C167.122 237.833 167.188 237.872 167.31 237.817L168.877 237.168C170.276 236.584 170.776 235.809 170.37 234.824C169.956 233.827 169.009 233.701 167.475 234.34ZM169.456 238.406L167.837 239.077C167.711 239.132 167.689 239.187 167.738 239.314L168.84 241.962C168.883 242.07 168.949 242.11 169.075 242.055L170.584 241.427C172.284 240.717 172.84 239.986 172.378 238.863C171.942 237.823 170.991 237.768 169.456 238.406ZM167.04 233.03C169.324 232.077 171.008 232.303 171.75 234.085C172.218 235.208 171.977 236.074 171.19 236.793C172.35 236.618 173.324 237.086 173.808 238.252C174.634 240.228 173.606 241.664 171.112 242.704L168.36 243.848C168.135 243.942 168.025 243.903 167.926 243.672L164.151 234.587C164.052 234.356 164.107 234.251 164.327 234.158L167.04 233.03Z" fill="#22403B"/>
<path d="M177.623 229.542L176.175 230.334C176.06 230.4 176.038 230.46 176.099 230.565L179.621 236.987C179.681 237.092 179.742 237.108 179.856 237.042L181.254 236.278C183.637 234.973 184.304 232.909 183.147 230.807C182.053 228.821 179.951 228.259 177.623 229.542ZM177.04 228.232C180.121 226.543 182.999 227.291 184.485 230.004C186.053 232.855 185.085 235.803 181.915 237.543L179.362 238.946C179.153 239.063 179.038 239.039 178.916 238.814L174.172 230.186C174.052 229.96 174.095 229.85 174.305 229.734L177.04 228.232Z" fill="#22403B"/>
<path d="M189.899 220.255C190.097 220.118 190.213 220.129 190.356 220.343L190.785 220.97C190.929 221.186 190.902 221.295 190.703 221.433L187.137 223.855C187.022 223.931 187.01 223.997 187.077 224.096L188.622 226.359C188.694 226.473 188.76 226.485 188.87 226.408L192.018 224.267C192.216 224.135 192.332 224.147 192.475 224.354L192.893 224.971C193.03 225.169 193.003 225.295 192.805 225.433L189.662 227.575C189.553 227.645 189.541 227.712 189.607 227.811L191.193 230.139C191.259 230.239 191.32 230.248 191.435 230.172L195.011 227.735C195.209 227.602 195.325 227.613 195.468 227.822L195.897 228.456C196.041 228.664 196.008 228.78 195.81 228.913L191.116 232.108C190.917 232.241 190.802 232.23 190.659 232.021L185.133 223.898C184.991 223.689 185.024 223.573 185.222 223.441L189.899 220.255Z" fill="#22403B"/>
<path d="M193.902 217.565L203.192 219.172L198.602 213.674C198.437 213.481 198.459 213.367 198.641 213.213L199.284 212.673C199.471 212.519 199.587 212.519 199.752 212.712L206.07 220.273C206.284 220.526 206.307 220.719 206.158 220.845C206.031 220.95 205.85 220.967 205.376 220.895L196.081 219.282L200.676 224.78C200.842 224.979 200.82 225.088 200.639 225.242L199.988 225.782C199.807 225.935 199.691 225.941 199.527 225.743L193.209 218.181C192.989 217.917 192.961 217.746 193.132 217.604C193.259 217.493 193.44 217.484 193.902 217.565Z" fill="#22403B"/>
<path d="M209.172 204.693L208.181 205.797C208.093 205.898 208.111 205.969 208.198 206.051L210.278 207.907C210.366 207.984 210.444 207.994 210.531 207.889L211.66 206.63C212.667 205.502 212.782 204.582 211.989 203.873C211.186 203.151 210.278 203.449 209.172 204.693ZM212.716 207.494L211.55 208.798C211.462 208.902 211.462 208.962 211.567 209.051L213.696 210.96C213.789 211.038 213.861 211.044 213.954 210.945L215.038 209.727C216.265 208.351 216.448 207.45 215.546 206.64C214.703 205.893 213.822 206.25 212.716 207.494ZM208.215 203.696C209.86 201.853 211.472 201.325 212.914 202.611C213.822 203.416 213.977 204.301 213.575 205.287C214.549 204.625 215.633 204.631 216.568 205.468C218.17 206.893 217.861 208.633 216.067 210.641L214.08 212.87C213.921 213.046 213.806 213.062 213.618 212.892L206.282 206.349C206.096 206.184 206.101 206.062 206.255 205.887L208.215 203.696Z" fill="#22403B"/>
<path d="M216.315 195.935L215.419 197.162C215.335 197.273 215.347 197.333 215.446 197.405L218.187 199.407C218.296 199.485 218.356 199.473 218.44 199.364L219.386 198.07C220.409 196.661 220.448 195.594 219.419 194.839C218.362 194.069 217.349 194.515 216.315 195.935ZM215.204 195.032C216.871 192.754 218.594 192.303 220.294 193.541C221.505 194.427 221.824 195.594 221.433 196.921L226.128 197.135C226.281 197.156 226.38 197.174 226.43 197.206C226.512 197.273 226.501 197.387 226.364 197.57L225.836 198.301C225.632 198.577 225.478 198.637 225.109 198.605L221.108 198.378C220.916 198.367 220.823 198.412 220.707 198.571L219.54 200.173C219.462 200.282 219.468 200.342 219.579 200.426L222.38 202.467C222.588 202.622 222.594 202.736 222.451 202.929L221.956 203.612C221.812 203.805 221.703 203.831 221.493 203.683L213.542 197.872C213.332 197.724 213.327 197.603 213.47 197.409L215.204 195.032Z" fill="#22403B"/>
<path d="M220.316 187.537C220.448 187.333 220.558 187.294 220.773 187.432L229.121 192.676C229.341 192.814 229.352 192.929 229.225 193.133L228.78 193.848C228.653 194.052 228.538 194.086 228.323 193.953L219.974 188.703C219.76 188.571 219.743 188.45 219.871 188.247L220.316 187.537Z" fill="#22403B"/>
<path d="M225.487 181.43L224.733 182.894C224.673 183.015 224.689 183.075 224.794 183.13L231.299 186.488C231.408 186.543 231.469 186.525 231.529 186.405L232.256 184.99C233.505 182.58 232.905 180.5 230.776 179.399C228.761 178.36 226.708 179.069 225.487 181.43ZM224.276 180.67C225.888 177.55 228.69 176.565 231.436 177.984C234.33 179.477 235.167 182.459 233.511 185.674L232.174 188.259C232.063 188.469 231.959 188.518 231.733 188.397L222.988 183.884C222.762 183.768 222.735 183.653 222.846 183.444L224.276 180.67Z" fill="#22403B"/>
<path d="M236.512 166.503C236.594 166.278 236.699 166.222 236.936 166.317L240.149 167.555C240.37 167.643 240.441 167.714 240.458 167.961C240.606 169.277 240.431 170.614 239.918 171.946C238.917 174.648 235.918 176.166 233.006 174.989C229.963 173.861 228.731 170.663 229.87 167.853C230.381 166.52 231.334 165.435 232.34 164.792C232.473 164.698 232.578 164.676 232.659 164.71C232.704 164.725 232.764 164.781 232.836 164.885L233.243 165.497C233.315 165.606 233.326 165.689 233.297 165.777C233.271 165.842 233.216 165.903 233.128 165.969C232.203 166.64 231.554 167.456 231.19 168.391C230.354 170.553 231.338 172.671 233.513 173.509C235.725 174.368 237.861 173.338 238.631 171.351C238.971 170.465 239.115 169.684 239.082 168.98C239.076 168.782 239.043 168.737 238.89 168.677L236.396 167.714C236.16 167.621 236.121 167.51 236.209 167.285L236.512 166.503Z" fill="#22403B"/>
<path d="M234.24 154.698C234.306 154.467 234.399 154.4 234.648 154.467L235.385 154.671C235.627 154.736 235.676 154.841 235.616 155.071L234.477 159.233C234.438 159.364 234.471 159.419 234.587 159.452L237.229 160.173C237.361 160.212 237.416 160.179 237.449 160.047L238.456 156.377C238.516 156.146 238.615 156.078 238.858 156.15L239.585 156.342C239.814 156.408 239.876 156.519 239.814 156.75L238.807 160.42C238.775 160.547 238.803 160.603 238.918 160.636L241.637 161.378C241.752 161.411 241.807 161.378 241.84 161.251L242.985 157.075C243.05 156.843 243.145 156.778 243.393 156.843L244.13 157.047C244.372 157.114 244.422 157.219 244.355 157.45L242.858 162.924C242.798 163.157 242.699 163.221 242.458 163.157L232.98 160.563C232.733 160.492 232.683 160.387 232.749 160.156L234.24 154.698Z" fill="#22403B"/>
</svg>
